<?xml version="1.0" encoding="utf-8"?>
<!-- Generator: Adobe Illustrator 27.8.1, SVG Export Plug-In . SVG Version: 6.00 Build 0)  -->
<svg version="1.1" baseProfile="basic" id="Layer_1" xmlns:svgjs="http://svgjs.com/svgjs"
	 xmlns="http://www.w3.org/2000/svg" xmlns:xlink="http://www.w3.org/1999/xlink" x="0px" y="0px" viewBox="0 0 1000 1000"
	 xml:space="preserve">
<style type="text/css">
	.st0{fill:#F1F2F3;}
	.st1{stroke:#000000;stroke-width:21.164;stroke-miterlimit:105.8201;}
</style>
<path class="st0" d="M300,0h400c165.7,0,300,134.3,300,300v400c0,165.7-134.3,300-300,300H300C134.3,1000,0,865.7,0,700V300
	C0,134.3,134.3,0,300,0z"/>
<g>
	<g>
		<path class="st1" d="M509.1,907.9c-142.2,0-257-114.8-257-257c0-56.1,17.5-112.3,53.6-157.2l32.4,23.7
			c-28.7,37.4-43.7,83.6-43.7,131c0,119.7,97.3,217,217,217c114.8,0,208.3-93.6,217-218.3c5-74.8-33.7-136-76.1-200.8
			c-62.4-96-133.5-204.6-15-354.3l32.4,26.2c-99.8,124.7-44.9,208.3,17.5,305.6c43.7,67.4,88.6,137.2,82.3,227
			C758.6,798.1,647.6,907.9,509.1,907.9z"/>
	</g>
	<g>
		<path d="M621.4,647.2c23.7,0,42.4,22.5,33.7,44.9c-20,59.9-76.1,104.8-142.2,104.8s-124.7-43.7-143.4-104.8
			c-6.2-22.5,11.2-44.9,33.7-44.9h38.7h67.4h63.6H621.4z"/>
	</g>
	<g>
		<g>
			<g>
				<path d="M517.9,291.7c1.2,16.2-3.7,31.2-15,42.4c-11.2,11.2-23.7,20-39.9,20c-3.7,0-6.2,0-10,0l0,0
					c-11.2-1.2-22.5-6.2-32.4-12.5c-11.2-10-20-23.7-20-39.9c-1.2-16.2,3.7-31.2,12.5-42.4c10-11.2,23.7-20,39.9-20c1.2,0,3.7,0,5,0
					c15,0,28.7,6.2,39.9,16.2C509.1,261.8,516.6,275.5,517.9,291.7z"/>
			</g>
		</g>
		<g>
			<g>
				<path d="M353.2,330.4c7.5,11.2,12.5,23.7,12.5,37.4c0,1.2,0,3.7,0,5c-3.7,32.4-31.2,56.1-63.6,53.6
					c-32.4-2.5-56.1-31.2-53.6-63.6c1.2-16.2,7.5-28.7,21.2-39.9c11.2-10,23.7-12.5,37.4-12.5c1.2,0,3.7,0,5,0
					C328.3,310.4,343.2,319.1,353.2,330.4z"/>
			</g>
		</g>
		<g>
			<g>
				<path d="M505.4,456.3c1.2,16.2-3.7,31.2-12.5,42.4c-10,11.2-23.7,20-39.9,20c-16.2,1.2-31.2-3.7-42.4-15
					c-11.2-10-20-23.7-20-39.9c-1.2-16.2,3.7-31.2,15-42.4c10-11.2,23.7-20,39.9-21.2c1.2,0,3.7,0,5,0s3.7,0,5,0
					c12.5,1.2,23.7,6.2,32.4,15C496.7,427.7,505.4,440.1,505.4,456.3z"/>
			</g>
		</g>
	</g>
</g>
</svg>
