<?xml version="1.0" encoding="utf-8"?>
<!-- Generator: Adobe Illustrator 27.8.1, SVG Export Plug-In . SVG Version: 6.00 Build 0)  -->
<svg version="1.1" id="Layer_1" xmlns="http://www.w3.org/2000/svg" xmlns:xlink="http://www.w3.org/1999/xlink" x="0px" y="0px"
	 viewBox="0 0 75.6 75.6" style="enable-background:new 0 0 75.6 75.6;" xml:space="preserve">
<style type="text/css">
	.st0{stroke:#000000;stroke-width:2;stroke-miterlimit:10;}
	.st1{fill:none;}
</style>
<g>
	<g>
		<path class="st0" d="M36,70.5c-11.4,0-20.6-9.2-20.6-20.6c0-4.5,1.4-9,4.3-12.6l2.6,1.9c-2.3,3-3.5,6.7-3.5,10.5
			c0,9.6,7.8,17.4,17.4,17.4c9.2,0,16.7-7.5,17.4-17.5c0.4-6-2.7-10.9-6.1-16.1c-5-7.7-10.7-16.4-1.2-28.4l2.6,2.1
			c-8,10-3.6,16.7,1.4,24.5c3.5,5.4,7.1,11,6.6,18.2C56,61.7,47.1,70.5,36,70.5z"/>
	</g>
	<g>
		<path d="M45,49.6c1.9,0,3.4,1.8,2.7,3.6c-1.6,4.8-6.1,8.4-11.4,8.4s-10-3.5-11.5-8.4c-0.5-1.8,0.9-3.6,2.7-3.6h3.1H36h5.1
			C41.1,49.6,45,49.6,45,49.6z"/>
	</g>
	<g>
		<g>
			<g>
				<path d="M36.7,21.1c0.1,1.3-0.3,2.5-1.2,3.4s-1.9,1.6-3.2,1.6c-0.3,0-0.5,0-0.8,0l0,0c-0.9-0.1-1.8-0.5-2.6-1
					c-0.9-0.8-1.6-1.9-1.6-3.2c-0.1-1.3,0.3-2.5,1-3.4c0.8-0.9,1.9-1.6,3.2-1.6c0.1,0,0.3,0,0.4,0c1.2,0,2.3,0.5,3.2,1.3
					C36,18.7,36.6,19.8,36.7,21.1z"/>
			</g>
		</g>
		<g>
			<g>
				<path d="M23.5,24.2c0.6,0.9,1,1.9,1,3c0,0.1,0,0.3,0,0.4c-0.3,2.6-2.5,4.5-5.1,4.3c-2.6-0.2-4.5-2.5-4.3-5.1
					c0.1-1.3,0.6-2.3,1.7-3.2c0.9-0.8,1.9-1,3-1c0.1,0,0.3,0,0.4,0C21.5,22.6,22.7,23.3,23.5,24.2z"/>
			</g>
		</g>
		<g>
			<g>
				<path d="M35.7,34.3c0.1,1.3-0.3,2.5-1,3.4c-0.8,0.9-1.9,1.6-3.2,1.6c-1.3,0.1-2.5-0.3-3.4-1.2c-0.9-0.8-1.6-1.9-1.6-3.2
					c-0.1-1.3,0.3-2.5,1.2-3.4c0.8-0.9,1.9-1.6,3.2-1.7c0.1,0,0.3,0,0.4,0s0.3,0,0.4,0c1,0.1,1.9,0.5,2.6,1.2
					C35,32,35.7,33,35.7,34.3z"/>
			</g>
		</g>
	</g>
	<line class="st1" x1="20.9" y1="38.2" x2="45.8" y2="5.6"/>
	<rect x="18.7" y="22" class="st1" width="14.7" height="14.9"/>
	<line class="st1" x1="18.7" y1="22" x2="34.2" y2="37.6"/>
	<line class="st1" x1="33.3" y1="29.4" x2="6.5" y2="29.4"/>
</g>
</svg>
