<?xml version="1.0" encoding="utf-8"?>
<!-- Generator: Adobe Illustrator 27.8.1, SVG Export Plug-In . SVG Version: 6.00 Build 0)  -->
<svg version="1.1" id="Layer_1" xmlns="http://www.w3.org/2000/svg" xmlns:xlink="http://www.w3.org/1999/xlink" x="0px" y="0px"
	 viewBox="0 0 402.9 92.3" style="enable-background:new 0 0 402.9 92.3;" xml:space="preserve">
<style type="text/css">
	.st0{fill:#EE7D23;}
	.st1{fill:#FFFFFF;}
</style>
<path class="st0" d="M178.2,92.3L7.7,77.8L7.5,2.4h192.9L178.2,92.3z"/>
<path class="st1" d="M124.4,20.3c1.6,0.4,3.2,0.8,4.8,1.3c3.5,1.3,5.6,3.8,5.9,7.6c0.4,4.1-1.1,7.3-4.7,9.3
	c-0.4,0.2-0.7,0.4-1.1,0.6c0.1,0.2,0.1,0.3,0.1,0.4c5.8,2.4,7.9,5.5,7.5,10.5c-0.5,5.7-4.1,9.7-10.1,11.2c-1.1,0.3-2.2,0.5-3.2,0.8
	c-2.5,0-5,0-7.4,0c-2.9-0.4-5.8-0.8-8.9-1.2c0-13.2,0-26.2,0-39.4c2.9-0.4,5.7-0.8,8.5-1.1C118.7,20.3,121.6,20.3,124.4,20.3z
	 M116,55.1c4.4,1.6,9.5,0.9,11.3-1.7c1.7-2.5,1.8-5.1,0.2-7.7c-1.7-2.6-7.1-3.5-11.5-2.1C116,47.5,116,51.3,116,55.1z M115.9,27.1
	c0,3.6,0,6.9,0,10.3c3.8,1,8.5,0.2,9.5-2.2c0.8-1.8,1.1-4.6,0.2-6C123.4,25.8,119.6,26.6,115.9,27.1z M121,25.8c0-0.2,0-0.4,0-0.5
	c-4.3,0-8.5,0-12.8,0c0,0.2,0,0.4,0,0.5C112.4,25.8,116.7,25.8,121,25.8z M108.2,23.3c0,0.2,0,0.4,0.1,0.5c4.2,0,8.5,0,12.8,0
	c0-0.2,0-0.4,0-0.5C116.7,23.3,112.5,23.3,108.2,23.3z M121,22c0-0.3,0-0.6-0.1-0.9c-3.5,0.2-7.1,0.4-10.6,0.7c0,0.1,0,0.2,0,0.2
	C113.9,22,117.5,22,121,22z M108.2,32.8c0,0.2,0,0.4,0,0.6c2.2,0,4.3,0,6.5,0c0-0.2,0-0.4,0-0.6C112.5,32.8,110.4,32.8,108.2,32.8z
	 M114.7,31.5c0-0.2,0-0.4,0-0.5c-2.2,0-4.4,0-6.6,0c0,0.2,0,0.4,0,0.5C110.4,31.5,112.6,31.5,114.7,31.5z M114.7,27.7
	c0-0.2,0-0.4,0-0.5c-2.2,0-4.3,0-6.4,0c0,0.2,0,0.4,0,0.5C110.4,27.7,112.5,27.7,114.7,27.7z M114.8,29.6c0-0.2,0-0.3-0.1-0.5
	c-2.1,0-4.3,0-6.4,0c0,0.2,0,0.3,0,0.5C110.5,29.6,112.6,29.6,114.8,29.6z"/>
<path class="st1" d="M66.3,20.4c1.6,0.4,3.2,0.6,4.7,1.1c4.3,1.4,7.1,4.1,7.6,8.8c0.6,5.3-1,9.7-5.7,12.6c-0.5,0.3-1,0.5-1.7,0.9
	c4.1,5.2,8.1,10.4,12.3,15.9c-3.1,0.8-6,1.5-9,2.2c-4.2-5.7-8.3-11.3-12.5-17c-0.6,0-1.2-0.1-2-0.1c0,5.4,0,10.7,0,16.2
	c-3,0-5.8,0-8.7,0c0-13,0-26.1,0-39.4c3.1-0.4,6.3-0.7,9.4-1.1C62.6,20.4,64.5,20.4,66.3,20.4z M60.1,38.5c4.2,1.1,8.2,0.5,9-2
	c0.7-2.2,0.8-5,0-7.1c-0.9-2.4-5.7-3-9-1.8C60.1,31.2,60.1,34.8,60.1,38.5z M58.9,47.5c0-0.2,0-0.3,0-0.5c-2.2,0-4.5,0-6.7,0
	c0,0.2,0,0.3,0,0.5C54.5,47.5,56.7,47.5,58.9,47.5z M52.2,48.7c0,0.2,0,0.4,0,0.5c2.2,0,4.5,0,6.7,0c0-0.2,0-0.4,0-0.5
	C56.7,48.7,54.5,48.7,52.2,48.7z M52.3,50.5c0,0.2,0,0.4,0,0.6c2.2,0,4.5,0,6.7,0c0-0.2,0-0.4,0-0.6C56.7,50.5,54.5,50.5,52.3,50.5z
	 M59,56.9c0-0.2,0-0.4,0-0.6c-2.2,0-4.4,0-6.7,0c0,0.2,0,0.4,0,0.6C54.5,56.9,56.7,56.9,59,56.9z M59,45.5c0-0.2,0-0.3,0-0.5
	c-2.2,0-4.5,0-6.7,0c0,0.2,0,0.3,0,0.5C54.5,45.5,56.7,45.5,59,45.5z M58.9,53.1c0-0.2,0-0.4,0-0.5c-2.2,0-4.5,0-6.7,0
	c0,0.2,0,0.4,0,0.5C54.5,53.1,56.7,53.1,58.9,53.1z M52.2,54.4c0,0.2,0,0.3,0,0.5c2.2,0,4.4,0,6.7,0c0-0.2,0-0.3,0-0.5
	C56.7,54.4,54.5,54.4,52.2,54.4z"/>
<path class="st1" d="M169.6,61.6c-1.6-3.9-3.3-7.9-5-11.9c-4.7,0-9.3,0-14.2,0c-1.5,3.8-3.1,7.6-4.8,11.7c-2.5-0.7-4.9-1.3-7.6-2
	c5.5-13.1,10.9-25.8,16.4-38.6c2.7,0,5.4,0,8.2,0c3.9,9.8,7.9,19.6,11.9,29.4c1.2,3,2.5,5.9,3.7,8.9c0,0.1,0,0.2,0,0.4
	c-2.7,0.7-5.5,1.5-8.2,2.2C169.9,61.6,169.8,61.6,169.6,61.6z M152.8,42.9c3.4,0,6.3,0,9.5,0c-1.5-4.1-2.9-8-4.5-12.4
	C156,34.9,154.4,38.7,152.8,42.9z M165.6,48.9c0,0.2,0,0.3-0.1,0.5c2.5,0,5,0,7.5,0c0-0.2,0-0.3,0-0.5
	C170.6,48.9,168.1,48.9,165.6,48.9z M164.3,45.1c0,0.2,0,0.3-0.1,0.5c2.4,0,4.8,0,7.3,0c0-0.2,0-0.3,0-0.5
	C169.1,45.1,166.7,45.1,164.3,45.1z M165,47c0,0.2,0,0.3-0.1,0.5c2.4,0,4.9,0,7.3,0c0-0.2,0-0.3,0-0.5C169.8,47,167.4,47,165,47z
	 M163.6,43.2c0,0.2,0,0.4-0.1,0.5c2.4,0,4.8,0,7.1,0c0-0.2,0-0.4,0-0.5C168.4,43.2,166,43.2,163.6,43.2z"/>
<path class="st1" d="M18.7,21.3c8.2,0,16.4,0,24.7,0c0,2.4,0,4.6,0,7c-5.3,0-10.4,0-15.8,0c0,2.9,0,5.7,0,8.6c4.7,0,9.4,0,14.2,0
	c0,2.4,0,4.5,0,7c-4.7,0-9.3,0-14.2,0c0,3.5,0,6.7,0,10.2c5.9,0,11.7,0,17.6,0c0,2.4,0,4.6,0,7c-8.9,0-17.7,0-26.6,0
	C18.7,47.8,18.7,34.5,18.7,21.3z M19.7,34.3c0,0.2,0,0.4,0,0.6c2.2,0,4.5,0,6.7,0c0-0.2,0-0.4,0-0.6C24.2,34.3,22,34.3,19.7,34.3z
	 M26.4,36.8c0-0.2,0-0.4,0-0.6c-2.2,0-4.5,0-6.7,0c0,0.2,0,0.4,0,0.6C22,36.8,24.2,36.8,26.4,36.8z M26.5,31c0-0.2,0-0.4,0-0.5
	c-2.2,0-4.5,0-6.7,0c0,0.2,0,0.4,0,0.5C22,31,24.2,31,26.5,31z M19.8,32.3c0,0.2,0,0.4,0,0.6c2.2,0,4.4,0,6.6,0c0-0.2,0-0.4,0-0.6
	C24.2,32.3,22,32.3,19.8,32.3z M26.4,29.1c0-0.2,0-0.3,0-0.5c-2.2,0-4.4,0-6.6,0c0,0.2,0,0.3,0,0.5C22,29.1,24.2,29.1,26.4,29.1z"/>
<path class="st1" d="M88.5,21.3c3,0,5.8,0,8.7,0c0,13.2,0,26.4,0,39.7c-2.9,0-5.7,0-8.7,0C88.5,47.8,88.5,34.6,88.5,21.3z"/>
<g>
	<g>
		<path class="st1" d="M217.4,33.3h-4.2v3.9h4.7v1.2h-6.1V27.6h5.8v1.2h-4.4v3.4h4.2V33.3z"/>
		<path class="st1" d="M226.1,36.3c0,0.8,0,1.5,0.1,2.1H225l-0.1-1.3l0,0c-0.4,0.6-1.2,1.4-2.6,1.4c-1.2,0-2.7-0.7-2.7-3.4v-4.5h1.4
			v4.3c0,1.5,0.5,2.5,1.7,2.5c0.9,0,1.6-0.7,1.9-1.3c0.1-0.2,0.1-0.5,0.1-0.7v-4.7h1.4L226.1,36.3L226.1,36.3z"/>
		<path class="st1" d="M228.4,33c0-0.9,0-1.7-0.1-2.4h1.2l0.1,1.5h0.1c0.4-1,1.2-1.7,2.2-1.7c0.1,0,0.3,0,0.4,0v1.3
			c-0.1,0-0.3,0-0.5,0c-1,0-1.7,0.8-1.9,1.8c0,0.2-0.1,0.4-0.1,0.7v4.1h-1.4V33L228.4,33z"/>
		<path class="st1" d="M240.7,34.4c0,2.9-2,4.1-3.9,4.1c-2.1,0-3.7-1.5-3.7-4c0-2.6,1.7-4.1,3.8-4.1
			C239.2,30.5,240.7,32.1,240.7,34.4z M234.5,34.5c0,1.7,1,3,2.4,3s2.4-1.3,2.4-3c0-1.3-0.7-3-2.3-3
			C235.2,31.5,234.5,33.1,234.5,34.5z"/>
		<path class="st1" d="M242.4,33.2c0-1,0-1.8-0.1-2.5h1.3l0.1,1.3l0,0c0.6-0.9,1.5-1.5,2.8-1.5c1.9,0,3.3,1.6,3.3,3.9
			c0,2.8-1.7,4.2-3.5,4.2c-1,0-1.9-0.5-2.4-1.2l0,0v4.2h-1.4L242.4,33.2L242.4,33.2z M243.8,35.2c0,0.2,0,0.4,0.1,0.6
			c0.2,1,1.1,1.7,2.1,1.7c1.5,0,2.4-1.2,2.4-3c0-1.5-0.8-2.9-2.3-2.9c-1,0-1.9,0.7-2.1,1.7c-0.1,0.2-0.1,0.4-0.1,0.6L243.8,35.2
			L243.8,35.2z"/>
		<path class="st1" d="M252.3,34.8c0,1.9,1.2,2.7,2.6,2.7c1,0,1.6-0.2,2.1-0.4l0.2,1c-0.5,0.2-1.4,0.5-2.6,0.5
			c-2.4,0-3.8-1.6-3.8-3.9c0-2.3,1.4-4.2,3.6-4.2c2.5,0,3.2,2.2,3.2,3.6c0,0.3,0,0.5,0,0.7L252.3,34.8L252.3,34.8z M256.5,33.7
			c0-0.9-0.4-2.3-1.9-2.3c-1.4,0-2.1,1.3-2.2,2.3H256.5z"/>
		<path class="st1" d="M263.9,38.4l-0.1-1l0,0c-0.4,0.6-1.3,1.2-2.4,1.2c-1.6,0-2.4-1.1-2.4-2.2c0-1.9,1.7-2.9,4.6-2.9v-0.2
			c0-0.6-0.2-1.8-1.8-1.8c-0.7,0-1.5,0.2-2,0.6l-0.3-0.9c0.6-0.4,1.6-0.7,2.6-0.7c2.4,0,2.9,1.6,2.9,3.2v2.9c0,0.7,0,1.3,0.1,1.8
			C265.1,38.4,263.9,38.4,263.9,38.4z M263.6,34.4c-1.5,0-3.3,0.2-3.3,1.7c0,0.9,0.6,1.3,1.3,1.3c1,0,1.7-0.6,1.9-1.3
			c0-0.2,0.1-0.3,0.1-0.4V34.4L263.6,34.4z"/>
		<path class="st1" d="M267.3,32.7c0-0.8,0-1.5-0.1-2.1h1.2l0.1,1.3l0,0c0.4-0.7,1.3-1.5,2.6-1.5c1.1,0,2.7,0.6,2.7,3.3v4.6h-1.4
			v-4.5c0-1.2-0.5-2.3-1.8-2.3c-0.9,0-1.6,0.7-1.9,1.4c-0.1,0.2-0.1,0.4-0.1,0.7v4.7h-1.4L267.3,32.7L267.3,32.7z"/>
		<path class="st1" d="M279.6,27.7c0.7-0.1,1.7-0.2,2.7-0.2c1.5,0,2.5,0.3,3.1,0.9c0.5,0.5,0.9,1.2,0.9,2c0,1.4-0.9,2.4-2,2.7l0,0
			c0.8,0.3,1.3,1.1,1.6,2.2c0.4,1.5,0.6,2.5,0.8,3h-1.5c-0.2-0.3-0.4-1.2-0.7-2.6c-0.3-1.5-0.9-2-2.2-2.1H281v4.7h-1.4V27.7
			L279.6,27.7z M281,32.6h1.4c1.5,0,2.4-0.8,2.4-2c0-1.4-1-2-2.5-2c-0.7,0-1.1,0.1-1.4,0.1v3.9H281z"/>
		<path class="st1" d="M288.9,34.8c0,1.9,1.2,2.7,2.6,2.7c1,0,1.6-0.2,2.1-0.4l0.2,1c-0.5,0.2-1.4,0.5-2.6,0.5
			c-2.4,0-3.8-1.6-3.8-3.9c0-2.3,1.4-4.2,3.6-4.2c2.5,0,3.2,2.2,3.2,3.6c0,0.3,0,0.5,0,0.7L288.9,34.8L288.9,34.8z M293,33.7
			c0-0.9-0.4-2.3-1.9-2.3c-1.4,0-2,1.3-2.2,2.3H293z"/>
		<path class="st1" d="M296,36.9c0.4,0.3,1.2,0.5,1.9,0.5c1,0,1.5-0.5,1.5-1.2s-0.4-1-1.4-1.4c-1.4-0.5-2.1-1.3-2.1-2.2
			c0-1.2,1-2.3,2.7-2.3c0.8,0,1.5,0.2,1.9,0.5l-0.4,1c-0.3-0.2-0.9-0.5-1.6-0.5c-0.8,0-1.3,0.5-1.3,1.1s0.5,0.9,1.5,1.3
			c1.3,0.5,2,1.2,2,2.3c0,1.4-1.1,2.3-2.9,2.3c-0.9,0-1.6-0.2-2.2-0.5L296,36.9z"/>
		<path class="st1" d="M303.3,34.8c0,1.9,1.2,2.7,2.6,2.7c1,0,1.6-0.2,2.1-0.4l0.2,1c-0.5,0.2-1.4,0.5-2.6,0.5
			c-2.4,0-3.8-1.6-3.8-3.9c0-2.3,1.4-4.2,3.6-4.2c2.5,0,3.2,2.2,3.2,3.6c0,0.3,0,0.5,0,0.7L303.3,34.8L303.3,34.8z M307.4,33.7
			c0-0.9-0.4-2.3-1.9-2.3c-1.4,0-2,1.3-2.2,2.3H307.4z"/>
		<path class="st1" d="M314.8,38.4l-0.1-1l0,0c-0.4,0.6-1.3,1.2-2.4,1.2c-1.6,0-2.4-1.1-2.4-2.2c0-1.9,1.7-2.9,4.6-2.9v-0.2
			c0-0.6-0.2-1.8-1.8-1.8c-0.7,0-1.5,0.2-2,0.6l-0.3-0.9c0.6-0.4,1.6-0.7,2.6-0.7c2.4,0,2.9,1.6,2.9,3.2v2.9c0,0.7,0,1.3,0.1,1.8
			C316,38.4,314.8,38.4,314.8,38.4z M314.6,34.4c-1.5,0-3.3,0.2-3.3,1.7c0,0.9,0.6,1.3,1.3,1.3c1,0,1.7-0.6,1.9-1.3
			c0-0.2,0.1-0.3,0.1-0.4V34.4L314.6,34.4z"/>
		<path class="st1" d="M318.2,33c0-0.9,0-1.7-0.1-2.4h1.2v1.5l0,0c0.4-1,1.2-1.7,2.2-1.7c0.1,0,0.3,0,0.4,0v1.3c-0.1,0-0.3,0-0.5,0
			c-1,0-1.7,0.8-1.9,1.8c0,0.2-0.1,0.4-0.1,0.7v4.1H318V33H318.2z"/>
		<path class="st1" d="M329,38.1c-0.4,0.2-1.2,0.5-2.2,0.5c-2.3,0-3.9-1.6-3.9-4s1.6-4.1,4.2-4.1c0.8,0,1.6,0.2,2,0.4l-0.3,1.1
			c-0.3-0.2-0.9-0.4-1.6-0.4c-1.8,0-2.7,1.3-2.7,2.9c0,1.8,1.1,2.9,2.7,2.9c0.8,0,1.3-0.2,1.7-0.4L329,38.1z"/>
		<path class="st1" d="M330.6,27h1.4v4.8l0,0c0.2-0.4,0.6-0.8,1-1s0.9-0.4,1.4-0.4c1,0,2.7,0.6,2.7,3.3v4.6h-1.4v-4.5
			c0-1.2-0.5-2.3-1.8-2.3c-0.9,0-1.6,0.6-1.9,1.4c-0.1,0.2-0.1,0.4-0.1,0.7v4.7h-1.4L330.6,27L330.6,27z"/>
		<path class="st1" d="M344.3,27.6v10.8h-1.4V27.6H344.3z"/>
		<path class="st1" d="M346.7,32.7c0-0.8,0-1.5-0.1-2.1h1.2l0.1,1.3l0,0c0.4-0.7,1.3-1.5,2.6-1.5c1.1,0,2.7,0.6,2.7,3.3v4.6h-1.4
			v-4.5c0-1.2-0.5-2.3-1.8-2.3c-0.9,0-1.6,0.7-1.9,1.4c-0.1,0.2-0.1,0.4-0.1,0.7v4.7h-1.4L346.7,32.7L346.7,32.7z"/>
		<path class="st1" d="M355.4,36.9c0.4,0.3,1.2,0.5,1.9,0.5c1,0,1.5-0.5,1.5-1.2s-0.4-1-1.4-1.4c-1.4-0.5-2.1-1.3-2.1-2.2
			c0-1.2,1-2.3,2.7-2.3c0.8,0,1.5,0.2,1.9,0.5l-0.4,1c-0.3-0.2-0.9-0.5-1.6-0.5c-0.8,0-1.3,0.5-1.3,1.1s0.5,0.9,1.5,1.3
			c1.3,0.5,2,1.2,2,2.3c0,1.4-1.1,2.3-2.9,2.3c-0.9,0-1.6-0.2-2.2-0.5L355.4,36.9z"/>
		<path class="st1" d="M363.6,28.4v2.2h2v1.1h-2v4.2c0,1,0.3,1.5,1.1,1.5c0.4,0,0.6,0,0.8-0.1l0.1,1.1c-0.3,0.1-0.7,0.2-1.3,0.2
			c-0.6,0-1.2-0.2-1.5-0.6c-0.4-0.4-0.5-1.1-0.5-2v-4.2H361v-1.1h1.2v-1.9L363.6,28.4z"/>
		<path class="st1" d="M368.8,28.4c0,0.5-0.3,0.9-0.9,0.9c-0.5,0-0.9-0.4-0.9-0.9s0.4-0.9,0.9-0.9C368.5,27.6,368.8,28,368.8,28.4z
			 M367.2,38.4v-7.7h1.4v7.7H367.2z"/>
		<path class="st1" d="M372.7,28.4v2.2h2v1.1h-2v4.2c0,1,0.3,1.5,1.1,1.5c0.4,0,0.6,0,0.8-0.1l0.1,1.1c-0.3,0.1-0.7,0.2-1.3,0.2
			c-0.6,0-1.2-0.2-1.5-0.6c-0.4-0.4-0.5-1.1-0.5-2v-4.2h-1.2v-1.1h1.2v-1.9L372.7,28.4z"/>
		<path class="st1" d="M382.8,36.3c0,0.8,0,1.5,0.1,2.1h-1.2l-0.1-1.3l0,0c-0.4,0.6-1.2,1.4-2.6,1.4c-1.2,0-2.7-0.7-2.7-3.4v-4.5
			h1.4v4.3c0,1.5,0.5,2.5,1.7,2.5c0.9,0,1.6-0.7,1.9-1.3c0.1-0.2,0.1-0.5,0.1-0.7v-4.7h1.4L382.8,36.3L382.8,36.3z"/>
		<path class="st1" d="M386.8,28.4v2.2h2v1.1h-2v4.2c0,1,0.3,1.5,1.1,1.5c0.4,0,0.6,0,0.8-0.1l0.1,1.1c-0.3,0.1-0.7,0.2-1.3,0.2
			c-0.6,0-1.2-0.2-1.5-0.6c-0.4-0.4-0.5-1.1-0.5-2v-4.2h-1.2v-1.1h1.2v-1.9L386.8,28.4z"/>
		<path class="st1" d="M391.2,34.8c0,1.9,1.2,2.7,2.6,2.7c1,0,1.6-0.2,2.1-0.4l0.2,1c-0.5,0.2-1.4,0.5-2.6,0.5
			c-2.4,0-3.8-1.6-3.8-3.9c0-2.3,1.4-4.2,3.6-4.2c2.5,0,3.2,2.2,3.2,3.6c0,0.3,0,0.5,0,0.7L391.2,34.8L391.2,34.8z M395.3,33.7
			c0-0.9-0.4-2.3-1.9-2.3c-1.4,0-2,1.3-2.2,2.3H395.3z"/>
		<path class="st1" d="M211.9,57.6v-6.7h-1.1v-1.1h1.1v-0.4c0-1.1,0.2-2.1,0.9-2.7c0.5-0.5,1.2-0.7,1.9-0.7c0.5,0,0.9,0.1,1.2,0.2
			l-0.2,1.1c-0.2-0.1-0.5-0.2-0.9-0.2c-1.2,0-1.5,1-1.5,2.2v0.4h1.9v1.1h-1.9v6.7L211.9,57.6L211.9,57.6z"/>
		<path class="st1" d="M223.4,53.6c0,2.9-2,4.1-3.9,4.1c-2.1,0-3.7-1.5-3.7-4c0-2.6,1.7-4.1,3.8-4.1
			C221.9,49.7,223.4,51.3,223.4,53.6z M217.3,53.7c0,1.7,1,3,2.4,3s2.4-1.3,2.4-3c0-1.3-0.7-3-2.3-3C218,50.7,217.3,52.3,217.3,53.7
			z"/>
		<path class="st1" d="M225.2,52.2c0-0.9,0-1.7-0.1-2.4h1.2l0.1,1.5h0.1c0.4-1,1.2-1.7,2.2-1.7c0.1,0,0.3,0,0.4,0V51
			c-0.1,0-0.3,0-0.5,0c-1,0-1.7,0.8-1.9,1.8c0,0.2-0.1,0.4-0.1,0.7v4.1h-1.4V52.2L225.2,52.2z"/>
		<path class="st1" d="M240.5,47.6v2.2h2v1.1h-2v4.2c0,1,0.3,1.5,1.1,1.5c0.4,0,0.6,0,0.8-0.1l0.1,1.1c-0.3,0.1-0.7,0.2-1.3,0.2
			s-1.2-0.2-1.5-0.6c-0.4-0.4-0.6-1.1-0.6-2V51h-1.2v-1.1h1.2V48L240.5,47.6z"/>
		<path class="st1" d="M244.1,46.2h1.4V51l0,0c0.2-0.4,0.6-0.8,1-1s0.9-0.4,1.4-0.4c1,0,2.7,0.6,2.7,3.3v4.6h-1.4V53
			c0-1.2-0.5-2.3-1.8-2.3c-0.9,0-1.6,0.6-1.9,1.4c-0.1,0.2-0.1,0.4-0.1,0.7v4.7H244L244.1,46.2L244.1,46.2z"/>
		<path class="st1" d="M253.8,54c0,1.9,1.2,2.7,2.6,2.7c1,0,1.6-0.2,2.1-0.4l0.2,1c-0.5,0.2-1.4,0.5-2.6,0.5c-2.4,0-3.8-1.6-3.8-3.9
			c0-2.3,1.4-4.2,3.6-4.2c2.5,0,3.2,2.2,3.2,3.6c0,0.3,0,0.5-0.1,0.7L253.8,54L253.8,54z M257.9,53c0-0.9-0.4-2.3-1.9-2.3
			c-1.4,0-2.1,1.3-2.2,2.3H257.9z"/>
		<path class="st1" d="M269.4,46.9c0.6-0.1,1.6-0.2,2.5-0.2c1.4,0,2.3,0.2,3,0.8c0.6,0.4,0.9,1.1,0.9,1.9c0,1-0.7,2-1.8,2.4l0,0
			c1,0.2,2.2,1.1,2.2,2.7c0,0.9-0.4,1.6-0.9,2.2c-0.7,0.7-2,1-3.7,1c-1,0-1.7-0.1-2.2-0.1V46.9L269.4,46.9z M270.8,51.4h1.3
			c1.5,0,2.3-0.8,2.3-1.8c0-1.2-1-1.8-2.4-1.8c-0.6,0-1,0-1.2,0.1L270.8,51.4L270.8,51.4z M270.8,56.5c0.3,0.1,0.7,0.1,1.2,0.1
			c1.5,0,2.8-0.5,2.8-2.1c0-1.5-1.3-2.1-2.8-2.1h-1.2V56.5z"/>
		<path class="st1" d="M279.6,47.6c0,0.5-0.3,0.9-0.9,0.9c-0.5,0-0.9-0.4-0.9-0.9s0.4-0.9,0.9-0.9C279.3,46.8,279.6,47.2,279.6,47.6
			z M278.1,57.6v-7.7h1.4v7.7H278.1z"/>
		<path class="st1" d="M288.8,53.6c0,2.9-2,4.1-3.9,4.1c-2.1,0-3.7-1.5-3.7-4c0-2.6,1.7-4.1,3.8-4.1
			C287.3,49.7,288.8,51.3,288.8,53.6z M282.7,53.7c0,1.7,1,3,2.4,3s2.4-1.3,2.4-3c0-1.3-0.7-3-2.3-3
			C283.4,50.7,282.7,52.3,282.7,53.7z"/>
		<path class="st1" d="M290.6,46.2h1.4v11.4h-1.4V46.2z"/>
		<path class="st1" d="M301.4,53.6c0,2.9-2,4.1-3.9,4.1c-2.1,0-3.7-1.5-3.7-4c0-2.6,1.7-4.1,3.8-4.1
			C299.9,49.7,301.4,51.3,301.4,53.6z M295.2,53.7c0,1.7,1,3,2.4,3s2.4-1.3,2.4-3c0-1.3-0.7-3-2.3-3C296,50.7,295.2,52.3,295.2,53.7
			z"/>
		<path class="st1" d="M309.8,49.8c0,0.5-0.1,1.2-0.1,2.1v4.5c0,1.8-0.4,2.9-1.1,3.5c-0.8,0.7-1.8,0.9-2.8,0.9c-0.9,0-2-0.2-2.6-0.6
			l0.4-1.1c0.5,0.3,1.3,0.6,2.3,0.6c1.4,0,2.5-0.8,2.5-2.7v-0.9l0,0c-0.4,0.7-1.3,1.3-2.5,1.3c-1.9,0-3.3-1.6-3.3-3.8
			c0-2.6,1.7-4.1,3.5-4.1c1.3,0,2.1,0.7,2.4,1.3l0,0l0.1-1.2C308.6,49.8,309.8,49.8,309.8,49.8z M308.4,52.9c0-0.2,0-0.4-0.1-0.6
			c-0.3-0.8-0.9-1.5-2-1.5c-1.3,0-2.3,1.1-2.3,2.9c0,1.5,0.8,2.8,2.3,2.8c0.9,0,1.7-0.5,2-1.5c0.1-0.2,0.1-0.5,0.1-0.8V52.9
			L308.4,52.9z"/>
		<path class="st1" d="M312.6,49.8l1.7,4.6c0.2,0.5,0.4,1.1,0.5,1.6l0,0c0.1-0.5,0.3-1,0.5-1.6l1.5-4.5h1.5l-2.1,5.5
			c-1,2.7-1.7,4-2.6,4.9c-0.7,0.6-1.4,0.8-1.7,0.9l-0.4-1.2c0.4-0.1,0.8-0.3,1.2-0.7c0.4-0.3,0.9-0.8,1.2-1.6
			c0.1-0.2,0.1-0.2,0.1-0.3s0-0.2-0.1-0.4l-2.9-7.1C311.1,49.8,312.6,49.8,312.6,49.8z"/>
		<path class="st1" d="M335,53.6c0,2.9-2,4.1-3.9,4.1c-2.1,0-3.7-1.5-3.7-4c0-2.6,1.7-4.1,3.8-4.1C333.5,49.7,335,51.3,335,53.6z
			 M328.9,53.7c0,1.7,1,3,2.4,3s2.4-1.3,2.4-3c0-1.3-0.7-3-2.3-3C329.6,50.7,328.9,52.3,328.9,53.7z"/>
		<path class="st1" d="M337,57.6v-6.7h-1.1v-1.1h1.1v-0.4c0-1.1,0.2-2.1,0.9-2.7c0.5-0.5,1.2-0.7,1.9-0.7c0.5,0,0.9,0.1,1.2,0.2
			l-0.2,1.1c-0.2-0.1-0.5-0.2-0.9-0.2c-1.2,0-1.5,1-1.5,2.2v0.4h1.9v1.1h-1.9v6.7L337,57.6L337,57.6z"/>
		<path class="st1" d="M351.7,54.2l-1.1,3.4h-1.4l3.7-10.8h1.7l3.7,10.8h-1.5l-1.2-3.4H351.7z M355.2,53.1l-1.1-3.1
			c-0.2-0.7-0.4-1.3-0.6-2l0,0c-0.1,0.6-0.3,1.3-0.5,2l-1.1,3.1H355.2z"/>
		<path class="st1" d="M366.3,49.8c0,0.5-0.1,1.2-0.1,2.1v4.5c0,1.8-0.4,2.9-1.1,3.5c-0.8,0.7-1.8,0.9-2.8,0.9c-0.9,0-2-0.2-2.6-0.6
			l0.4-1.1c0.5,0.3,1.3,0.6,2.3,0.6c1.4,0,2.5-0.8,2.5-2.7v-0.9l0,0c-0.4,0.7-1.3,1.3-2.5,1.3c-1.9,0-3.3-1.6-3.3-3.8
			c0-2.6,1.7-4.1,3.5-4.1c1.3,0,2.1,0.7,2.4,1.3l0,0l0.1-1.2C365.1,49.8,366.3,49.8,366.3,49.8z M364.9,52.9c0-0.2,0-0.4-0.1-0.6
			c-0.3-0.8-0.9-1.5-2-1.5c-1.3,0-2.3,1.1-2.3,2.9c0,1.5,0.8,2.8,2.3,2.8c0.9,0,1.7-0.5,2-1.5c0.1-0.2,0.1-0.5,0.1-0.8V52.9
			L364.9,52.9z"/>
		<path class="st1" d="M369.4,54c0,1.9,1.2,2.7,2.6,2.7c1,0,1.6-0.2,2.1-0.4l0.2,1c-0.5,0.2-1.4,0.5-2.6,0.5c-2.4,0-3.8-1.6-3.8-3.9
			c0-2.3,1.4-4.2,3.6-4.2c2.5,0,3.2,2.2,3.2,3.6c0,0.3,0,0.5,0,0.7L369.4,54L369.4,54z M373.5,53c0-0.9-0.4-2.3-1.9-2.3
			c-1.4,0-2,1.3-2.2,2.3H373.5z"/>
		<path class="st1" d="M378.2,47.6c0,0.5-0.3,0.9-0.9,0.9c-0.5,0-0.9-0.4-0.9-0.9s0.4-0.9,0.9-0.9C377.9,46.8,378.2,47.2,378.2,47.6
			z M376.6,57.6v-7.7h1.4v7.7H376.6z"/>
		<path class="st1" d="M380.4,51.9c0-0.8,0-1.5-0.1-2.1h1.2l0.1,1.3l0,0c0.4-0.7,1.3-1.5,2.6-1.5c1.1,0,2.7,0.6,2.7,3.3v4.6h-1.4V53
			c0-1.2-0.5-2.3-1.8-2.3c-0.9,0-1.6,0.7-1.9,1.4c-0.1,0.2-0.1,0.4-0.1,0.7v4.7h-1.4L380.4,51.9L380.4,51.9z"/>
		<path class="st1" d="M395.9,49.8c0,0.5-0.1,1.2-0.1,2.1v4.5c0,1.8-0.4,2.9-1.1,3.5c-0.8,0.7-1.8,0.9-2.8,0.9c-0.9,0-2-0.2-2.6-0.6
			l0.4-1.1c0.5,0.3,1.3,0.6,2.3,0.6c1.4,0,2.5-0.8,2.5-2.7v-0.9l0,0c-0.4,0.7-1.3,1.3-2.5,1.3c-1.9,0-3.3-1.6-3.3-3.8
			c0-2.6,1.7-4.1,3.5-4.1c1.3,0,2.1,0.7,2.4,1.3l0,0l0.1-1.2C394.7,49.8,395.9,49.8,395.9,49.8z M394.5,52.9c0-0.2,0-0.4-0.1-0.6
			c-0.3-0.8-0.9-1.5-2-1.5c-1.3,0-2.3,1.1-2.3,2.9c0,1.5,0.8,2.8,2.3,2.8c0.9,0,1.7-0.5,2-1.5c0.1-0.2,0.1-0.5,0.1-0.8V52.9
			L394.5,52.9z"/>
	</g>
</g>
</svg>
