<?xml version="1.0" encoding="utf-8"?>
<!-- Generator: Adobe Illustrator 27.8.1, SVG Export Plug-In . SVG Version: 6.00 Build 0)  -->
<svg version="1.1" baseProfile="basic" id="Layer_1"
	 xmlns="http://www.w3.org/2000/svg" xmlns:xlink="http://www.w3.org/1999/xlink" x="0px" y="0px" viewBox="0 0 255.9 61.7"
	 xml:space="preserve">
<style type="text/css">
	.st0{fill:#EEA02F;}
	.st1{fill:#EEA030;}
	.st2{fill:#EB5B3B;}
	.st3{fill:#E95A3A;}
	.st4{fill:#EC5B3B;}
	.st5{fill:#F15D3C;}
</style>
<path class="st0" d="M195.4,40.4c-1.9,1.6-3.9,2.8-6.4,3.2c-2.2,0.3-4.3,0-6.1-1.3c-2.5-1.9-2.7-5.4-0.2-7.3
	c1.5-1.1,3.5-1.8,5.3-2.5c1.6-0.6,3.4-1,5-1.4c2.3-0.7,2.6-1.2,2.1-3.6c-0.8-3.7-4.5-5.3-7.6-3.3c-1.1,0.7-1.3,1.4-0.6,2.4
	c0.7,1.2,0.7,2,0,2.8c-0.8,0.9-2.2,1.2-3.2,0.7c-0.9-0.4-1.5-1.5-1.4-2.6c0.2-1.5,1-2.6,2.1-3.5c3-2.4,8.1-2.8,11.4-0.9
	c2.3,1.3,3.2,3.4,3.2,5.9c0,3.4,0,6.7,0.1,10.1c0.1,1.9,0.9,2.7,2.4,2.7c1.1,0,1.8-0.5,2.1-1.5c0.2-0.5,0.2-1.1,0.2-1.6
	c0-4.8,0-9.6,0-14.4c0-0.2,0-0.4-0.1-0.6c-1.1,0-2.1,0-3.2,0c0-0.6,0-1.2,0-1.8c0.8,0,1.6,0,2.3,0c0.7,0,1-0.3,0.9-1
	c0-1.1,0-2.2,0-3.3c0-3.5,1.6-5.8,5-6.7c3.5-1,6.9-0.8,9.8,1.7c1.2,1.1,1.7,2.5,1.2,3.8c-0.3,0.9-1,1.5-1.9,1.6
	c-1.1,0.1-2-0.3-2.7-1.2c-0.6-0.8-0.4-1.6,0.1-2.4c0.8-1.3,0.5-2-1-2.4c-3.6-0.9-6.4,1.1-6.7,4.8c-0.1,1.7,0,3.4,0,5.1
	c1.4,0,2.7,0,4,0c0,0.6,0,1.2,0,1.8c-1.3,0-2.6,0-4.1,0c0,1.4,0,2.6,0,3.9c0,3.1,0,6.2,0,9.3c0,3.2-1.2,5.2-3.7,6.2
	c-2.6,1.1-5.6,0.4-7.6-1.7C196,41.1,195.7,40.8,195.4,40.4z M195.4,31.9c-2,0.6-3.7,1-5.4,1.5c-1.7,0.6-3.3,1.3-4.4,2.8
	c-1.4,2-0.8,4.5,1.4,5.2c2.7,1,6.9-0.2,7.7-3.6C195.3,36,195.2,34.1,195.4,31.9z"/>
<path class="st1" d="M225.9,40.5c-2.3,2-5.1,3.4-8.2,3.2c-1.3-0.1-2.7-0.5-3.8-1.1c-3.1-1.8-3.2-5.9-0.3-7.8c1.5-1,3.3-1.6,5-2.2
	c1.9-0.7,3.9-1.2,5.9-1.7c1.1-0.3,1.5-1,1.4-2.2c-0.3-4.2-4.1-6.4-7.6-4.4c-1.3,0.8-1.5,1.4-0.7,2.6c0.5,0.9,0.7,1.7,0,2.5
	c-0.8,0.9-1.8,1.3-2.9,1c-1-0.2-1.5-0.9-1.7-1.9c-0.3-1.5,0.4-2.7,1.4-3.7c3.1-3.2,9.8-3.6,13.1-0.7c1.5,1.3,2.1,3,2.1,5
	c0,3,0,5.9,0,8.9c0,0.8,0.1,1.6,0.3,2.4c0.3,1.2,1.1,1.8,2.3,1.7c1.1,0,1.8-0.6,2-1.8c0.2-1,0.3-2,0.3-3c0-3.6,0.1-7.2-0.1-10.8
	c-0.2-2.7-0.1-2.5-3.2-2.7c0-0.3-0.1-0.5-0.1-0.8c0-0.3,0-0.5,0.1-0.8c2.1-0.1,4.1-0.3,6.2-0.4c0.1,0.5,0.1,1,0.2,1.4
	c1.4-0.4,2.7-0.9,4.1-1c2.4-0.3,4.9-0.1,7,1.4c1.8,1.3,2.5,3.2,1.8,4.7c-0.5,1-1.5,1.5-2.7,1.3c-1.1-0.2-2.1-1-2.2-2
	c0-0.5,0.2-1.1,0.5-1.6c0.7-1.3,0.5-1.9-0.9-2.4c-3.7-1.2-6.9,1.3-7,5.5c0,2.8,0,5.6,0,8.4c0,2.5-0.9,4.5-3.2,5.7
	c-2.4,1.2-4.8,0.9-7-0.6C227.2,41.8,226.6,41.1,225.9,40.5z M225.8,32c-1.7,0.5-3.3,0.8-4.9,1.3c-1.7,0.5-3.4,1.3-4.5,2.7
	c-1.5,1.9-0.9,4.4,1.2,5.3c3.4,1.5,7.9-1.1,8.2-4.8C225.9,35.1,225.8,33.6,225.8,32z"/>
<path class="st2" d="M144.4,44.9c-0.7,0-1.4,0-2.3,0c0-0.4-0.1-0.8-0.1-1.2c0-2.4,0-4.8,0-7.3c0-0.4-0.2-1-0.5-1.2
	c-2.7-2.4-5.4-4.8-8.1-7.2c-0.1-0.1-0.2-0.1-0.5-0.3c0,2.8,0,5.4,0,8c-0.8,0-1.5,0-2.3,0c0-3.7,0-7.4,0-11.1c1.3-0.2,2.4-0.1,3.5,1
	c2.2,2.2,4.6,4.2,6.9,6.2c0.3,0.2,0.5,0.4,1,0.8c0-5.9,0-11.5,0-17.3c0.8,0,1.5,0,2.3,0C144.4,25.2,144.4,35,144.4,44.9z"/>
<path class="st3" d="M7,44.9c-0.9,0-1.6,0-2.4,0c0-9.8,0-19.6,0-29.5c0.7,0,1.5,0,2.4,0c0,0.4,0,0.8,0,1.2c0,3.8,0,7.6,0,11.4
	c0,0.9,0.3,1.1,1.1,1.1c2.7,0,5.4,0,8.3,0c0-1.5,0-2.9,0-4.5c0.8,0,1.6,0,2.4,0c0,3.7,0,7.3,0,11.1c-0.7,0-1.4,0-2.3,0
	c0-1.5,0-3,0-4.5c-3.2,0-6.2,0-9.4,0C7,35.8,7,40.3,7,44.9z"/>
<path class="st2" d="M121,24.1c0.7,0.1,1.7,0.2,2.7,0.5c2.7,0.8,4.3,3.2,4.1,5.9c-0.2,2.9-2.3,5.1-5.3,5.4c-1.4,0.2-2.9,0.1-4.2-0.2
	c-3.1-0.7-4.8-3.1-4.5-6.2c0.2-2.6,2.4-4.8,5.3-5.2C119.6,24.3,120.1,24.2,121,24.1z M120.9,26.1c-1.1,0.3-2,0.5-2.8,0.9
	c-1.3,0.6-1.9,1.8-1.9,3.2c0,1.4,0.7,2.5,2,3.2c1.7,0.8,3.5,0.8,5.2,0c2.4-1.2,2.7-4.5,0.5-6C123,26.7,121.9,26.5,120.9,26.1z"/>
<path class="st2" d="M64,30.2c0,2.5-1.3,4.5-3.6,5.3c-2.1,0.8-4.3,0.8-6.4,0.1c-2.6-0.9-4.2-3.3-4-5.8c0.3-3,2.2-5,5.3-5.5
	c1.7-0.3,3.3-0.2,5,0.4C62.7,25.6,64,27.6,64,30.2z M57,26.2c-0.9,0.3-1.9,0.5-2.8,0.9c-2.1,1.2-2.4,4.1-0.6,5.7
	c1.6,1.4,3.5,1.5,5.5,0.8c1.9-0.7,2.9-2.5,2.4-4.4C61,27.4,59.3,26.3,57,26.2z"/>
<path class="st4" d="M22.6,35.7c0-3.8,0-7.4,0-11.1c3.7,0,7.4,0,11.1,0c0,0.6,0,1.3,0,2c-2.9,0-5.8,0-8.7,0c0,0.9,0,1.6,0,2.5
	c2.1,0,4.1,0,6.2,0c0,0.7,0,1.3,0,2c-2,0-4.1,0-6.2,0c0,0.9,0,1.8,0,2.7c2.9,0,5.9,0,8.9,0c0,0.7,0,1.3,0,2
	C30.1,35.7,26.4,35.7,22.6,35.7z"/>
<path class="st4" d="M78.8,24.6c0.8,0,1.5,0,2.4,0c0,1.8,0,3.6,0,5.4c0,1.8,0.9,3.1,2.4,3.7c1.8,0.6,3.9,0.2,4.8-1.2
	c0.5-0.8,0.8-1.9,0.9-2.9c0.1-1.7,0-3.3,0-5.1c0.8,0,1.5,0,2.2,0c0,2.3,0.3,4.7-0.1,7c-0.5,3.4-3.5,4.6-6.4,4.5
	c-3.3-0.2-5.4-1.7-5.9-4.3c-0.3-1.4-0.2-2.8-0.2-4.2C78.8,26.7,78.8,25.7,78.8,24.6z"/>
<path class="st2" d="M35.2,24.5c0.6,0,1.1,0.1,1.6,0c0.7-0.1,1.1,0.2,1.4,0.9c1.1,2.4,2.3,4.7,3.5,7.1c0.1,0.2,0.2,0.4,0.5,0.8
	c0.6-1.2,1.2-2.4,1.7-3.5c0.5-1,1-2.1,1.5-3.1c1-2.2,1-2.2,3.6-2c-0.3,0.6-0.6,1.2-0.9,1.8c-1.4,2.8-2.9,5.7-4.2,8.5
	c-0.3,0.6-0.6,0.8-1.3,0.9c-1.4,0.1-2.2-0.3-2.8-1.7C38.4,30.9,36.8,27.8,35.2,24.5z"/>
<path class="st4" d="M98.8,26.6c-1.8,0-3.4,0-5,0c0-0.7,0-1.3,0-2c4.1,0,8.2,0,12.4,0c0,0.6,0,1.2,0,2c-1.6,0-3.2,0-5,0
	c0,3.1,0,6.1,0,9.1c-0.8,0-1.5,0-2.4,0C98.8,32.7,98.8,29.8,98.8,26.6z"/>
<path class="st4" d="M67,24.6c0.8,0,1.5,0,2.3,0c0,3,0,6,0,9.1c2.8,0,5.4,0,8.1,0c0,0.7,0,1.3,0,2c-3.4,0-6.9,0-10.4,0
	C67,32,67,28.3,67,24.6z"/>
<path class="st5" d="M164.3,30.9c0-9.9,0-19.7,0-29.6c0-0.3,0-0.9,0-0.9l0.7,0c0,0,0,0.6,0,0.9c0,19.6,0,39.3,0,58.9
	c0,0.2,0,0.5,0,0.5l-0.7,0C164.3,60.8,164.3,40.9,164.3,30.9z"/>
<path class="st3" d="M108.6,24.6c0.8,0,1.5,0,2.2,0c0,3.7,0,7.4,0,11.1c-0.7,0-1.4,0-2.2,0C108.6,32,108.6,28.4,108.6,24.6z"/>
</svg>
