<?xml version="1.0" encoding="utf-8"?>
<!-- Generator: Adobe Illustrator 27.8.1, SVG Export Plug-In . SVG Version: 6.00 Build 0)  -->
<svg version="1.1" id="Layer_1" xmlns="http://www.w3.org/2000/svg" xmlns:xlink="http://www.w3.org/1999/xlink" x="0px" y="0px"
	 viewBox="0 0 147.9 99.8" style="enable-background:new 0 0 147.9 99.8;" xml:space="preserve">
<style type="text/css">
	.st0{fill:#EEA02F;}
	.st1{fill:#EEA030;}
	.st2{fill:#EB5B3B;}
	.st3{fill:#E95A3A;}
	.st4{fill:#EC5B3B;}
</style>
<g>
	<path class="st0" d="M45.6,88.8c-2.5,2.1-5.1,3.6-8.3,4.2c-2.9,0.4-5.6,0-7.9-1.7c-3.3-2.5-3.5-7-0.3-9.5c2-1.4,4.6-2.3,6.9-3.3
		c2.1-0.8,4.4-1.3,6.5-1.8c3-0.9,3.4-1.6,2.7-4.7c-1-4.8-5.9-6.9-9.9-4.3c-1.4,0.9-1.7,1.8-0.8,3.1c0.9,1.6,0.9,2.6,0,3.6
		c-1,1.2-2.9,1.6-4.2,0.9c-1.2-0.5-2-2-1.8-3.4c0.3-2,1.3-3.4,2.7-4.6c3.9-3.1,10.5-3.6,14.8-1.2c3,1.7,4.2,4.4,4.2,7.7
		c0,4.4,0,8.7,0.1,13.1c0.1,2.5,1.2,3.5,3.1,3.5c1.4,0,2.3-0.7,2.7-2c0.3-0.7,0.3-1.4,0.3-2.1c0-6.2,0-12.5,0-18.7
		c0-0.3,0-0.5-0.1-0.8c-1.4,0-2.7,0-4.2,0c0-0.8,0-1.6,0-2.3c1,0,2.1,0,3,0c0.9,0,1.3-0.4,1.2-1.3c0-1.4,0-2.9,0-4.3
		c0-4.6,2.1-7.5,6.5-8.7c4.6-1.3,9-1,12.8,2.2c1.6,1.4,2.2,3.3,1.6,4.9c-0.4,1.2-1.3,2-2.5,2.1c-1.4,0.1-2.6-0.4-3.5-1.6
		c-0.8-1-0.5-2.1,0.1-3.1c1-1.7,0.7-2.6-1.3-3.1c-4.7-1.2-8.3,1.4-8.7,6.2c-0.1,2.2,0,4.4,0,6.6c1.8,0,3.5,0,5.2,0
		c0,0.8,0,1.6,0,2.3c-1.7,0-3.4,0-5.3,0c0,1.8,0,3.4,0,5.1c0,4,0,8.1,0,12.1c0,4.2-1.6,6.8-4.8,8.1c-3.4,1.4-7.3,0.5-9.9-2.2
		C46.4,89.7,46,89.3,45.6,88.8z M45.6,77.8c-2.6,0.8-4.8,1.3-7,2c-2.2,0.8-4.3,1.7-5.7,3.6c-1.8,2.6-1,5.9,1.8,6.8
		c3.5,1.3,9-0.3,10-4.7C45.5,83.1,45.3,80.6,45.6,77.8z"/>
	<path class="st1" d="M85.3,89c-3,2.6-6.6,4.4-10.7,4.2c-1.7-0.1-3.5-0.7-4.9-1.4c-4-2.3-4.2-7.7-0.4-10.1c2-1.3,4.3-2.1,6.5-2.9
		c2.5-0.9,5.1-1.6,7.7-2.2c1.4-0.4,2-1.3,1.8-2.9c-0.4-5.5-5.3-8.3-9.9-5.7c-1.7,1-2,1.8-0.9,3.4c0.7,1.2,0.9,2.2,0,3.3
		c-1,1.2-2.3,1.7-3.8,1.3c-1.3-0.3-2-1.2-2.2-2.5c-0.4-2,0.5-3.5,1.8-4.8c4-4.2,12.8-4.7,17-0.9c2,1.7,2.7,3.9,2.7,6.5
		c0,3.9,0,7.7,0,11.6c0,1,0.1,2.1,0.4,3.1c0.4,1.6,1.4,2.3,3,2.2c1.4,0,2.3-0.8,2.6-2.3c0.3-1.3,0.4-2.6,0.4-3.9
		c0-4.7,0.1-9.4-0.1-14.1c-0.3-3.5-0.1-3.3-4.2-3.5c0-0.4-0.1-0.7-0.1-1c0-0.4,0-0.7,0.1-1c2.7-0.1,5.3-0.4,8.1-0.5
		c0.1,0.7,0.1,1.3,0.3,1.8c1.8-0.5,3.5-1.2,5.3-1.3c3.1-0.4,6.4-0.1,9.1,1.8c2.3,1.7,3.3,4.2,2.3,6.1c-0.7,1.3-2,2-3.5,1.7
		c-1.4-0.3-2.7-1.3-2.9-2.6c0-0.7,0.3-1.4,0.7-2.1c0.9-1.7,0.7-2.5-1.2-3.1c-4.8-1.6-9,1.7-9.1,7.2c0,3.6,0,7.3,0,10.9
		c0,3.3-1.2,5.9-4.2,7.4C94,94,90.9,93.6,88,91.7C87,90.6,86.2,89.7,85.3,89z M85.2,77.9c-2.2,0.7-4.3,1-6.4,1.7
		c-2.2,0.7-4.4,1.7-5.9,3.5c-2,2.5-1.2,5.7,1.6,6.9c4.4,2,10.3-1.4,10.7-6.2C85.3,81.9,85.2,80,85.2,77.9z"/>
</g>
<path class="st2" d="M144.4,33c-0.7,0-1.4,0-2.3,0c0-0.4-0.1-0.8-0.1-1.2c0-2.4,0-4.8,0-7.3c0-0.4-0.2-1-0.5-1.2
	c-2.7-2.4-5.4-4.8-8.1-7.2c-0.1-0.1-0.2-0.1-0.5-0.3c0,2.8,0,5.4,0,8c-0.8,0-1.5,0-2.3,0c0-3.7,0-7.4,0-11.1c1.3-0.2,2.4-0.1,3.5,1
	c2.2,2.2,4.6,4.2,6.9,6.2c0.3,0.2,0.5,0.4,1,0.8c0-5.9,0-11.5,0-17.3c0.8,0,1.5,0,2.3,0C144.4,13.3,144.4,23.1,144.4,33z"/>
<path class="st3" d="M7,33c-0.9,0-1.6,0-2.4,0c0-9.8,0-19.6,0-29.5c0.7,0,1.5,0,2.4,0c0,0.4,0,0.8,0,1.2c0,3.8,0,7.6,0,11.4
	c0,0.9,0.3,1.1,1.1,1.1c2.7,0,5.4,0,8.3,0c0-1.5,0-2.9,0-4.5c0.8,0,1.6,0,2.4,0c0,3.7,0,7.3,0,11.1c-0.7,0-1.4,0-2.3,0
	c0-1.5,0-3,0-4.5c-3.2,0-6.2,0-9.4,0C7,23.9,7,28.4,7,33z"/>
<path class="st2" d="M121,12.2c0.7,0.1,1.7,0.2,2.7,0.5c2.7,0.8,4.3,3.2,4.1,5.9c-0.2,2.9-2.3,5.1-5.3,5.4c-1.4,0.2-2.9,0.1-4.2-0.2
	c-3.1-0.7-4.8-3.1-4.5-6.2c0.2-2.6,2.4-4.8,5.3-5.2C119.6,12.4,120.1,12.3,121,12.2z M120.9,14.2c-1.1,0.3-2,0.5-2.8,0.9
	c-1.3,0.6-1.9,1.8-1.9,3.2c0,1.4,0.7,2.5,2,3.2c1.7,0.8,3.5,0.8,5.2,0c2.4-1.2,2.7-4.5,0.5-6C123,14.8,121.9,14.6,120.9,14.2z"/>
<path class="st2" d="M64,18.3c0,2.5-1.3,4.5-3.6,5.3c-2.1,0.8-4.3,0.8-6.4,0.1c-2.6-0.9-4.2-3.3-4-5.8c0.3-3,2.2-5,5.3-5.5
	c1.7-0.3,3.3-0.2,5,0.4C62.7,13.7,64,15.7,64,18.3z M57,14.3c-0.9,0.3-1.9,0.5-2.8,0.9c-2.1,1.2-2.4,4.1-0.6,5.7
	c1.6,1.4,3.5,1.5,5.5,0.8c1.9-0.7,2.9-2.5,2.4-4.4C61,15.5,59.3,14.4,57,14.3z"/>
<path class="st4" d="M22.6,23.8c0-3.8,0-7.4,0-11.1c3.7,0,7.4,0,11.1,0c0,0.6,0,1.3,0,2c-2.9,0-5.8,0-8.7,0c0,0.9,0,1.6,0,2.5
	c2.1,0,4.1,0,6.2,0c0,0.7,0,1.3,0,2c-2,0-4.1,0-6.2,0c0,0.9,0,1.8,0,2.7c2.9,0,5.9,0,8.9,0c0,0.7,0,1.3,0,2
	C30.1,23.8,26.4,23.8,22.6,23.8z"/>
<path class="st4" d="M78.8,12.7c0.8,0,1.5,0,2.4,0c0,1.8,0,3.6,0,5.4s0.9,3.1,2.4,3.7c1.8,0.6,3.9,0.2,4.8-1.2
	c0.5-0.8,0.8-1.9,0.9-2.9c0.1-1.7,0-3.3,0-5.1c0.8,0,1.5,0,2.2,0c0,2.3,0.3,4.7-0.1,7c-0.5,3.4-3.5,4.6-6.4,4.5
	c-3.3-0.2-5.4-1.7-5.9-4.3c-0.3-1.4-0.2-2.8-0.2-4.2C78.8,14.8,78.8,13.8,78.8,12.7z"/>
<path class="st2" d="M35.2,12.6c0.6,0,1.1,0.1,1.6,0c0.7-0.1,1.1,0.2,1.4,0.9c1.1,2.4,2.3,4.7,3.5,7.1c0.1,0.2,0.2,0.4,0.5,0.8
	c0.6-1.2,1.2-2.4,1.7-3.5c0.5-1,1-2.1,1.5-3.1c1-2.2,1-2.2,3.6-2c-0.3,0.6-0.6,1.2-0.9,1.8c-1.4,2.8-2.9,5.7-4.2,8.5
	c-0.3,0.6-0.6,0.8-1.3,0.9c-1.4,0.1-2.2-0.3-2.8-1.7C38.4,19,36.8,15.9,35.2,12.6z"/>
<path class="st4" d="M98.8,14.7c-1.8,0-3.4,0-5,0c0-0.7,0-1.3,0-2c4.1,0,8.2,0,12.4,0c0,0.6,0,1.2,0,2c-1.6,0-3.2,0-5,0
	c0,3.1,0,6.1,0,9.1c-0.8,0-1.5,0-2.4,0C98.8,20.8,98.8,17.9,98.8,14.7z"/>
<path class="st4" d="M67,12.7c0.8,0,1.5,0,2.3,0c0,3,0,6,0,9.1c2.8,0,5.4,0,8.1,0c0,0.7,0,1.3,0,2c-3.4,0-6.9,0-10.4,0
	C67,20.1,67,16.4,67,12.7z"/>
<path class="st3" d="M108.6,12.7c0.8,0,1.5,0,2.2,0c0,3.7,0,7.4,0,11.1c-0.7,0-1.4,0-2.2,0C108.6,20.1,108.6,16.5,108.6,12.7z"/>
</svg>
