<?xml version="1.0" encoding="utf-8"?>
<!-- Generator: Adobe Illustrator 27.8.1, SVG Export Plug-In . SVG Version: 6.00 Build 0)  -->
<svg version="1.1" baseProfile="basic" id="Layer_1"
	 xmlns="http://www.w3.org/2000/svg" xmlns:xlink="http://www.w3.org/1999/xlink" x="0px" y="0px" viewBox="0 0 258.7 178"
	 xml:space="preserve">
<path d="M199,71.4c2.2-3.5,2.2-7.1,0.1-10.7c-0.4-0.6-0.4-1.1-0.1-1.7c1.1-3.1,1-6.2-1-8.9c-1.1-1.5-2.2-2.9-1.4-4.6
	c0-3.9-1.6-6.6-4.4-8.7c-0.5-0.4-0.8-0.7-0.8-1.3c-0.1-4.4-2.1-7.6-6.2-9.4c-0.4-0.2-0.7-0.6-0.8-1c-1-4.1-3.5-6.8-7.7-7.8
	c-0.6-0.1-0.9-0.4-1.1-0.9c-1.8-3.8-4.8-5.8-9-5.9c-0.7,0-1-0.3-1.4-0.8c-2.6-3.6-6-5-10.3-4.2c-0.6,0.1-1,0-1.4-0.4
	c-3.1-3-6.7-3.8-10.8-2.3c-0.6,0.2-1.1,0.2-1.6-0.1c-3.6-2.2-7.2-2.2-10.8-0.1c-0.5,0.3-0.9,0.3-1.5,0.1c-4-1.5-7.5-0.7-10.6,2.2
	c-0.4,0.4-0.8,0.5-1.3,0.4c-4.5-0.8-7.9,0.8-10.5,4.4c-0.2,0.3-0.6,0.5-1,0.5c-4.6,0.1-7.8,2.2-9.7,6.3c-0.1,0.3-0.5,0.6-0.8,0.6
	c-4.3,1-7,3.6-8,7.9c-0.1,0.3-0.3,0.6-0.6,0.7c-4,1.8-6.1,4.9-6.3,9.3c0,0.4-0.3,0.9-0.6,1.1c-3.6,2.6-5,6.1-4.3,10.4
	c0.1,0.6,0,1-0.4,1.4c-3.1,3.2-3.9,6.9-2.3,11c0.2,0.5,0.1,0.9-0.1,1.4c-2.3,3.6-2.3,7.3-0.1,10.9c0.2,0.3,0.3,0.9,0.1,1.3
	c-1.5,4.1-0.7,7.6,2.2,10.8c0.3,0.3,0.4,0.8,0.4,1.2c-0.7,4.5,0.8,7.9,4.5,10.5c0.3,0.2,0.5,0.6,0.5,0.9c0.1,4.6,2.2,7.8,6.4,9.7
	c0.3,0.1,0.6,0.5,0.6,0.8c1,4.3,3.6,6.9,7.8,8c0.3,0.1,0.7,0.4,0.9,0.7c1.8,4,5,6,9.3,6.2c0.3,0,0.8,0.3,1,0.5
	c2.6,3.7,6.1,5.1,10.6,4.3c0.6-0.1,0.9,0.1,1.3,0.4c3.2,3.1,6.9,3.8,11.1,2.3c0.3-0.1,0.9-0.1,1.2,0.1c3.7,2.3,7.4,2.3,11.1,0.1
	c0.3-0.2,0.8-0.2,1.1-0.1c4.1,1.5,7.7,0.8,10.9-2.1c0.3-0.3,0.8-0.4,1.2-0.4c4.4,0.7,7.9-0.8,10.5-4.4c0.2-0.3,0.7-0.6,1.1-0.6
	c4.5-0.2,7.7-2.2,9.6-6.3c0.1-0.3,0.6-0.7,0.9-0.7c4.2-1,6.8-3.5,7.9-7.7c0.1-0.4,0.4-0.8,0.7-0.9c4-1.9,6-5,6.2-9.3
	c0-0.3,0.2-0.7,0.5-0.9c3.8-2.6,5.2-6.2,4.4-10.7c-0.1-0.4,0.2-0.9,0.4-1.2c3-3.2,3.8-6.8,2.3-10.9C198.6,72.3,198.7,71.9,199,71.4z
	 M197.2,57.9c-1.3-1.1-2.6-2.2-3.9-3.3c0.8-1.4,1.5-2.9,2.3-4.3C197.8,52.1,198.1,55.9,197.2,57.9z M164.6,56c0.5,0.3,1,0.6,1.5,0.9
	c-0.3,0.5-0.5,1.1-0.7,1.6C163.9,57.6,163.8,57.5,164.6,56z M164.1,66.7c-0.6-0.7-0.6-0.7,0-1.6C164.9,65.9,164.9,65.9,164.1,66.7z
	 M165.7,51.7c0.8,0.3,1.5,0.6,2.3,0.9c-0.4,0.8-0.7,1.6-1,2.3C165,54.4,164.8,53.8,165.7,51.7z M162.3,44.1v-2.7h3.5
	c-0.2,1.1-0.4,2.1-0.6,3.2C164.2,44.4,163.3,44.3,162.3,44.1z M167.1,62.9c-0.3,0.5-0.6,0.9-0.9,1.3c-1.2-0.9-1.2-1.1-0.3-2.4
	C166.4,62.2,166.7,62.5,167.1,62.9z M166.1,67.6c0.2,0.2,0.4,0.4,0.6,0.7c0.2,0.2,0.3,0.4,0.5,0.7c-0.4,0.4-0.8,0.8-1.2,1.1
	C164.9,69,164.9,68.8,166.1,67.6z M166.8,59.9c0.3-0.7,0.6-1.3,1-2c0.7,0.4,1.3,0.8,2,1.3c-0.5,0.7-0.9,1.3-1.4,2
	C167.8,60.8,167.3,60.4,166.8,59.9z M168.7,64.2c0.6,0.7,1.1,1.3,1.6,1.8c-0.5,0.5-1,1-1.5,1.7c-0.5-0.7-0.9-1.2-1.4-1.8
	C167.8,65.4,168.2,64.9,168.7,64.2z M175.6,60.8c-1-0.7-2-1.4-3-2.1c0.7-1.1,1.4-2.1,2.1-3.2c1.3,0.6,2.5,1.2,3.9,1.9
	C177.5,58.5,176.6,59.6,175.6,60.8z M175.9,63.5c1.1,0.8,2.2,1.7,3.4,2.7c-1.2,0.9-2.3,1.7-3.2,2.5c-1-0.9-1.9-1.7-2.9-2.6
	C174.2,65.1,175,64.3,175.9,63.5z M174.2,62.2c-0.9,0.7-1.7,1.4-2.5,2.2c-0.4-0.4-1.1-1-1.8-1.7c0.5-0.8,1.1-1.5,1.6-2.3
	C172.4,61,173.2,61.6,174.2,62.2z M171.7,67.5c0.9,0.8,1.7,1.6,2.6,2.4c-0.9,0.6-1.7,1.2-2.7,1.8c-0.6-0.9-1.2-1.6-1.8-2.5
	C170.5,68.7,171.2,68,171.7,67.5z M175.7,71.4c0.9,1.1,1.8,2.1,2.8,3.3c-1.3,0.6-2.5,1.2-3.7,1.8c-0.7-1-1.3-2-2-3.1
	C173.7,72.7,174.7,72.1,175.7,71.4z M177.3,70.2c1.3-1,2.4-1.9,3.6-2.8c1.3,1.2,2.5,2.3,3.9,3.6c-1.5,0.9-2.9,1.7-4.3,2.5
	c-0.1,0.1-0.4,0-0.5-0.1C179.1,72.4,178.2,71.3,177.3,70.2z M177.2,61.9c1.1-1.2,2.1-2.4,3.1-3.6c1.6,0.9,3.1,1.8,4.8,2.9
	c-1.4,1.3-2.8,2.5-4.1,3.7C179.7,63.9,178.5,62.9,177.2,61.9z M180,55.4c-0.1,0.1-0.5,0.2-0.7,0.1c-1.2-0.6-2.4-1.2-3.6-1.8
	c0.7-1.2,1.4-2.5,2.1-3.6c0.1-0.1,0.5-0.2,0.7-0.2c1.4,0.5,2.9,1,4.5,1.6C182,52.9,181,54.2,180,55.4z M173.9,52.9
	c-1.1-0.5-2.1-0.9-3.2-1.4c0.4-1,0.8-2,1.2-3c0.1-0.2,0.4-0.3,0.6-0.3c1.2,0.3,2.3,0.6,3.6,1C175.3,50.5,174.6,51.7,173.9,52.9z
	 M172.8,54.6c-0.7,1.1-1.3,2-1.9,2.9c-0.8-0.5-1.5-0.9-2.3-1.5c0.4-0.9,0.8-1.8,1.3-2.8C170.9,53.8,171.8,54.2,172.8,54.6z
	 M168.9,50.7c-0.2,0-0.2,0-0.2,0c-2.6-0.7-2.8-1-1.8-3.7c1,0.2,2.1,0.4,3.2,0.7C169.6,48.7,169.2,49.7,168.9,50.7z M166.2,39.4h-3.9
	c0-1.1,0-2.2,0-3.2c0-0.2,0.3-0.5,0.5-0.5c1.3-0.2,2.5-0.3,3.9-0.5C166.5,36.7,166.4,38,166.2,39.4z M163.5,46.3
	c0.4,0.1,0.8,0.1,1.3,0.2c-0.2,0.8-0.3,1.6-0.5,2.4c-2.6-0.7-2.3-0.3-2.1-2.8C162.6,46.2,163.1,46.3,163.5,46.3z M163.8,61.3
	c-0.6-0.4-0.9-0.9-0.3-1.6C164.2,60.1,164.5,60.6,163.8,61.3z M163.7,70.7c0.8,0.9,0.8,0.9-0.2,1.7
	C162.8,71.6,162.8,71.5,163.7,70.7z M165.2,73.5c0.2,0.3,0.3,0.6,0.5,0.9c0.1,0.2,0.2,0.5,0.4,0.8c-0.5,0.3-1,0.6-1.5,0.9
	C163.6,74.9,163.7,74.4,165.2,73.5z M164.9,87.3c0.2,1.1,0.4,2.1,0.6,3.3h-3.3v-2.8C163.1,87.6,163.9,87.4,164.9,87.3z M164,83
	c0.2,0.7,0.3,1.5,0.5,2.3c-0.8,0.1-1.5,0.3-2.3,0.4C161.6,83.8,161.7,83.6,164,83z M162.2,92.6h3.7c0.2,1.4,0.4,2.8,0.6,4.4
	c-1.5-0.2-2.9-0.4-4.2-0.6V92.6z M165.5,80.3c-0.9-1.9-0.8-2.2,1.4-3.2c0.3,0.7,0.6,1.4,1,2.3C167.1,79.7,166.3,80,165.5,80.3z
	 M167.9,74.2c-1.3-1.9-1.3-2.1,0.6-3.5c0.3,0.4,0.7,0.9,1,1.3c0.2,0.2,0.3,0.5,0.5,0.8C169.2,73.3,168.5,73.7,167.9,74.2z
	 M171.1,74.5c0.6,0.9,1.2,1.8,1.8,2.8c-1.1,0.5-2,0.9-3.1,1.3c-0.4-0.9-0.8-1.8-1.2-2.6C169.4,75.5,170.2,75,171.1,74.5z M174,79
	c0.7,1.2,1.3,2.4,2.1,3.6c-1.4,0.4-2.7,0.8-4.2,1.1c-0.4-1.1-0.9-2.2-1.3-3.3C171.7,80,172.8,79.5,174,79z M175.8,78.2
	c1.3-0.7,2.6-1.3,4-2c1,1.3,2,2.7,3.1,4.1c-1.6,0.5-3,1.1-4.4,1.5c-0.2,0.1-0.5-0.1-0.6-0.3C177.1,80.5,176.5,79.4,175.8,78.2z
	 M181.6,75.3c1.5-0.9,3.1-1.8,4.7-2.8c1.2,1.4,2.4,2.9,3.8,4.4c-1.8,0.9-3.5,1.7-5.1,2.5c-0.1,0.1-0.5-0.1-0.6-0.3
	C183.4,77.9,182.5,76.6,181.6,75.3z M182.5,66.2c1.4-1.3,2.8-2.5,4.3-3.9c1.5,1.2,3,2.4,4.7,3.8c-1.7,1.4-3.3,2.6-5,3.9
	C185.2,68.7,183.9,67.5,182.5,66.2z M186.5,59.8c-1.7-1-3.3-2-5-3c1.1-1.5,2.1-2.9,3.3-4.5c1.8,0.9,3.6,1.9,5.6,2.9
	C189.1,56.8,187.8,58.3,186.5,59.8z M186,50.6c0.9-1.7,1.8-3.3,2.9-5.2c1.6,1,3.2,1.9,4.7,2.9c0.2,0.1,0.3,0.5,0.2,0.7
	c-0.7,1.5-1.4,3-2.1,4.5C189.7,52.5,187.9,51.6,186,50.6z M184.1,49.9c-1.8-0.7-3.5-1.3-5.2-1.9c0.7-1.5,1.3-2.9,2-4.3
	c0.1-0.2,0.4-0.3,0.6-0.3c1.7,0.4,3.5,0.9,5.4,1.4C186,46.6,185,48.2,184.1,49.9z M177.1,47c-0.1,0.2-0.5,0.3-0.7,0.3
	c-1.2-0.3-2.4-0.7-3.8-1c0.4-1.3,0.8-2.5,1.3-3.7c0.1-0.2,0.4-0.4,0.6-0.4c1.5,0.2,3,0.4,4.6,0.7C178.5,44.3,177.8,45.7,177.1,47z
	 M174.5,32.9H169c0.1-1.8,0.2-3.6,0.3-5.7c1.9-0.2,3.9-0.4,6-0.7C175,28.7,174.8,30.8,174.5,32.9z M169.2,35
	c1.6-0.1,3.2-0.2,4.9-0.3c-0.4,1.7-0.8,3.2-1.2,4.7c-0.1,0.2-0.3,0.5-0.5,0.5c-1.4-0.1-2.8-0.2-4.2-0.3c0.2-1.4,0.3-2.8,0.5-4.1
	C168.7,35.3,169,35,169.2,35z M168.3,41.6c1.2,0,2.5,0.2,3.9,0.3c-0.5,1.4-0.9,2.6-1.3,3.9c-1.2-0.3-2.4-0.5-3.6-0.8
	c0.2-1,0.3-2,0.6-2.9C167.8,41.9,168.1,41.6,168.3,41.6z M166.9,32.8c0,0.1-0.3,0.4-0.5,0.4c-1.4,0.2-2.8,0.3-4.3,0.5
	c-0.1-1.6-0.2-3.1-0.3-4.8c1.8-0.4,3.5-0.9,5.4-1.4C167.2,29.5,167.1,31.1,166.9,32.8z M162,50.4c0.3,0.1,0.5,0.1,0.7,0.2
	c0.3,0.1,0.7,0.2,1.1,0.4c-0.2,0.6-0.3,1.2-0.5,1.8C161.7,52.3,161.5,52,162,50.4z M162.3,56c-0.7-0.3-1.2-0.8-0.7-1.6
	C162.8,54.8,162.8,54.8,162.3,56z M162.1,76.1c0.6,1.1,0.6,1.1-0.6,1.7C161.2,76.9,161.3,76.4,162.1,76.1z M163.1,79.3
	c0.1,0.6,0.3,1.1,0.5,1.7c-0.6,0.2-1.1,0.4-1.6,0.6C161.4,80.1,161.5,80,163.1,79.3z M162,98.4c1.4,0.2,2.8,0.3,4.2,0.5
	c0.1,0,0.4,0.3,0.4,0.4c0.1,1.6,0.2,3.2,0.3,5c-1.7-0.4-3.2-0.8-4.7-1.3c-0.2,0-0.4-0.3-0.4-0.5C161.8,101.2,161.9,99.9,162,98.4z
	 M166.5,84.9c-0.2-0.9-0.4-1.8-0.6-2.7c0.9-0.4,1.8-0.7,2.8-1.1c0.4,1,0.8,2,1.2,3C168.7,84.5,167.6,84.7,166.5,84.9z M170.2,86.2
	c0.2,0,0.5,0.2,0.5,0.3c0.4,1.2,0.8,2.3,1.3,3.6c-1.5,0.1-2.9,0.2-4.5,0.3c-0.2-1.2-0.4-2.4-0.6-3.6
	C168.1,86.6,169.1,86.4,170.2,86.2z M172.3,92.2c0.1,0,0.4,0.2,0.4,0.4c0.4,1.6,0.8,3.2,1.3,5c-1.9-0.1-3.5-0.2-5.1-0.3
	c-0.2,0-0.5-0.3-0.5-0.5c-0.2-1.4-0.3-2.8-0.5-4.3C169.4,92.3,170.8,92.2,172.3,92.2z M173.9,89.5c-0.4-1.3-0.8-2.5-1.3-3.9
	c1.4-0.4,2.7-0.8,4-1.1c0.2,0,0.5,0.1,0.6,0.3c0.7,1.4,1.4,2.8,2.2,4.4c-1.8,0.2-3.4,0.5-4.9,0.7C174.2,89.9,173.9,89.7,173.9,89.5z
	 M178.9,83.8c1.7-0.6,3.3-1.2,5-1.8c1,1.7,1.9,3.4,3,5.2c-1.9,0.5-3.7,1-5.6,1.6C180.5,87.2,179.7,85.6,178.9,83.8z M185.8,81.3
	c1.8-0.9,3.5-1.8,5.5-2.8c0.8,1.6,1.6,3.2,2.3,4.8c0.1,0.2-0.1,0.6-0.3,0.7c-1.5,0.9-3,1.8-4.5,2.7C187.7,84.7,186.8,83,185.8,81.3z
	 M188,71.4c1.6-1.3,3.2-2.5,5-4c1,1.4,2,2.7,3,4.1c0.1,0.1,0.1,0.5,0,0.6c-1.4,1.3-2.7,2.5-4.1,3.8C190.4,74.3,189.2,72.8,188,71.4z
	 M193,64.7c-1.7-1.3-3.2-2.6-4.8-3.8c1.3-1.5,2.6-3,3.9-4.6c1.4,1.3,2.8,2.5,4.3,3.9C195.3,61.7,194.1,63.2,193,64.7z M191.2,38.8
	c2.3,1,4,5,3.2,7.5c-1.6-0.9-3.2-1.7-4.7-2.6C190.2,42,190.7,40.4,191.2,38.8z M184.7,29.6c0-0.4,0.1-0.9,0.1-1.3
	c0.1,0,0.2,0,0.2,0.1c0.1,0,0.2,0.1,0.3,0.1c0.1,0,0.1,0.1,0.2,0.1c0.1,0.1,0.2,0.1,0.4,0.2c0,0,0.1,0.1,0.1,0.1
	c0.1,0.1,0.2,0.1,0.3,0.2c0.1,0,0.1,0.1,0.2,0.1c0,0,0.1,0.1,0.1,0.1c0,0,0.1,0.1,0.1,0.1c0.1,0,0.1,0.1,0.1,0.1
	c0.1,0.1,0.3,0.2,0.4,0.4c0,0,0.1,0.1,0.1,0.1c0.1,0.1,0.2,0.2,0.3,0.4c0,0,0,0,0,0.1c0,0.1,0.1,0.1,0.1,0.2c0,0.1,0.1,0.1,0.1,0.2
	c0,0,0.1,0.1,0.1,0.1c0.1,0.1,0.1,0.2,0.2,0.3c0,0,0,0.1,0.1,0.1c0,0,0,0,0,0c0,0.1,0.1,0.2,0.1,0.2c0,0,0,0,0,0
	c0,0.1,0.1,0.1,0.1,0.2c0,0,0,0.1,0,0.1c0,0,0,0.1,0.1,0.1c0,0.1,0.1,0.1,0.1,0.2c0,0.1,0.1,0.2,0.1,0.2c0.1,0.2,0.2,0.5,0.2,0.7
	c0,0.1,0,0.1,0,0.2c0,0,0,0.1,0,0.1c0,0,0,0.1,0,0.1l0,0.2c0,0.1,0,0.2,0.1,0.3c0,0.1,0,0.2,0,0.3c0,0.1,0,0.1,0,0.2c0,0,0,0,0,0
	c0,0,0,0.1,0,0.1c0,0.1,0,0.1,0,0.2c0,0.1,0,0.2,0,0.4c-1.7-0.5-3.4-1-5-1.5C184.4,32.3,184.6,30.9,184.7,29.6z M188.9,37.3
	c0.2,0.1,0.3,0.5,0.3,0.7c-0.4,1.7-0.9,3.3-1.3,5c-2.1-0.6-4-1.1-5.9-1.7c0.6-1.9,1.2-3.7,1.9-5.8C185.6,36.1,187.3,36.7,188.9,37.3
	z M182.3,25c-1.6-0.2-3.3-0.3-5-0.5c-0.2-1.7-0.4-3.4-0.6-5.1C179.3,19.9,181.5,22.1,182.3,25z M177.3,26.4c1.7,0.3,3.3,0.5,4.9,0.8
	c0.2,0,0.5,0.5,0.5,0.7c0,1.8-0.2,3.5-0.3,5.4c-2.1-0.2-4-0.3-5.9-0.5C176.8,30.7,177,28.7,177.3,26.4z M176,35.1
	c0-0.1,0.4-0.3,0.6-0.3c1.7,0.1,3.4,0.2,5.3,0.4c-0.4,1.2-0.7,2.4-1.1,3.5c-0.2,0.7-0.4,1.7-0.9,2.1c-0.5,0.3-1.4-0.1-2.1-0.2
	c-1-0.1-2-0.3-3-0.4C175.2,38.4,175.6,36.8,176,35.1z M174.6,19.4c0.3,1.7,0.5,3.4,0.8,5.2c-2.2,0.2-4.1,0.5-6.1,0.7
	c-0.2-1.9-0.3-3.9-0.5-6.1c1.8-0.1,3.5-0.2,5.3-0.2C174.2,18.9,174.5,19.2,174.6,19.4z M173.5,16.8c-1.7,0.2-3.4,0.3-5.1,0.4
	c-0.5-1.6-1-3.1-1.5-4.7C169.4,12.2,172.5,14.2,173.5,16.8z M166.9,19.5c0.1,2,0.3,3.9,0.3,5.7c0,0.2-0.2,0.4-0.3,0.5
	c-1.7,0.4-3.4,0.8-5.2,1.2c-0.3-1.8-0.5-3.5-0.8-5.4C162.8,20.9,164.7,20.2,166.9,19.5z M164.2,12.5c0.2,0,0.6,0.3,0.7,0.5
	c0.6,1.5,1.1,3,1.6,4.5c-2.1,0.7-4.1,1.3-6.1,1.9c-0.5-1.8-1-3.6-1.6-5.7C160.6,13.4,162.4,12.9,164.2,12.5z M117.2,90.2h-1.6
	c-0.1-0.3-0.1-0.5-0.1-0.7c0-0.3,0-0.5-0.1-0.8C116.7,88.5,116.9,88.7,117.2,90.2z M115,86.5c-0.1-0.4-0.1-0.7-0.1-1
	c0.1-0.1,0.2-0.2,0.3-0.3c0.4,0.4,0.7,0.7,1.1,1.1c-0.1,0.1-0.1,0.2-0.2,0.3C115.7,86.6,115.4,86.6,115,86.5z M118.5,94.3
	c-0.8,0.2-1.4,0.3-2.3,0.5c-0.1-0.8-0.3-1.6-0.4-2.4C118.2,92,117.8,91.9,118.5,94.3z M119.3,96.1c0.3,0.9,0.7,1.8,1.1,2.9
	c-1.1,0.4-2,0.8-3,1.2c-0.3-1.2-0.5-2.3-0.7-3.4C117.5,96.5,118.3,96.3,119.3,96.1z M119.1,89c0.7-0.1,1.2,0.1,1.3,0.9
	C119.3,90.2,119.2,90.2,119.1,89z M120.1,92c1.5-0.2,1.5-0.2,2.2,1.2C120.7,94.1,120.4,93.9,120.1,92z M124.5,97.2
	c-0.7,0.3-1.4,0.6-2.3,1c-0.3-0.8-0.6-1.6-0.9-2.4C123.2,94.9,123.5,95,124.5,97.2z M129.5,97c0.5,0.5,0.9,1.1,1.5,1.7
	c-0.7,0.5-1.4,1-2.2,1.6c-0.5-0.7-0.9-1.4-1.4-2.2C128.1,97.7,128.8,97.3,129.5,97z M129.3,93.6c0-0.1,0-0.2,0.1-0.3
	c0.6,0.1,1.1,0.3,1.8,0.4C130.1,94.7,130,94.7,129.3,93.6z M126.3,96.3c-0.3-0.6-0.6-1.1-0.9-1.6c1.3-0.9,1.6-0.8,2.7,0.7
	C127.5,95.8,126.9,96,126.3,96.3z M123.8,91.9c0-0.1,0.1-0.2,0.1-0.3c0.5,0.2,1.1,0.3,1.8,0.6C124.5,93,124.3,92.9,123.8,91.9z
	 M125.5,98.9c0.5,0.8,1,1.6,1.5,2.5c-0.9,0.6-1.8,1.2-2.9,1.8c-0.5-1.1-0.9-2.1-1.3-3.1C123.8,99.6,124.6,99.3,125.5,98.9z
	 M128.2,103c0.7,1,1.3,1.9,2,2.9c-1.1,0.9-2.1,1.8-3.3,2.8c-0.6-1.3-1.2-2.5-1.8-3.7C126.2,104.3,127.1,103.6,128.2,103z
	 M129.8,101.9c0.8-0.6,1.6-1.2,2.4-1.7c0.7,0.6,1.3,1.2,2,1.8c-0.8,0.9-1.6,1.7-2.5,2.6C131,103.6,130.4,102.8,129.8,101.9z
	 M135.7,97.6c0.6,0.4,1.1,0.8,1.6,1.2c-0.6,0.6-1.2,1.1-1.7,1.7c-0.5-0.4-1.1-0.9-1.7-1.5C134.6,98.4,135.1,98,135.7,97.6z
	 M134.8,94.1h1.8C135.7,95.2,135.7,95.2,134.8,94.1z M133.5,96.8c-0.3,0.2-0.6,0.4-1,0.7c-0.4-0.4-0.8-0.9-1.2-1.3
	c1.3-1,1.5-1,2.5,0.2C133.8,96.5,133.7,96.6,133.5,96.8z M133.2,105.8c0.7-0.8,1.5-1.5,2.4-2.3c0.8,0.9,1.5,1.8,2.4,2.8
	c-0.7,0.9-1.6,2-2.6,3.3c-0.8-1.1-1.6-2.1-2.3-3.1C133,106.3,133.1,105.9,133.2,105.8z M137.1,101.9c0.4-0.4,0.9-1,1.5-1.5
	c0.1-0.1,0.5-0.1,0.7,0c0.6,0.4,1.2,0.8,1.9,1.3c-0.6,0.9-1.2,1.8-1.9,2.8C138.6,103.6,137.9,102.8,137.1,101.9z M137.3,96.4
	c1.2-1.1,1.3-1.1,2.4-0.2c-0.3,0.4-0.7,0.8-1.1,1.2C138.2,97,137.8,96.7,137.3,96.4z M143.6,98c-0.4,0.7-0.8,1.3-1.3,2
	c-0.7-0.5-1.3-0.9-2.1-1.5c0.5-0.6,0.9-1,1.4-1.6C142.4,97.4,143,97.7,143.6,98z M143.1,95.5c1-1.4,1-1.4,2.5-0.7
	c-0.3,0.5-0.5,0.9-0.9,1.5C144.2,96,143.7,95.8,143.1,95.5z M140.1,93.8c0.7-0.2,1.2-0.3,1.7-0.5c0,0.1,0.1,0.2,0.1,0.3
	C141.2,94.7,141.2,94.7,140.1,93.8z M142.9,102.8c1.1,0.7,2.1,1.4,3.2,2.1c-0.7,1.3-1.3,2.5-1.9,3.9c-1.2-1-2.2-1.9-3.4-3
	C141.5,104.8,142.2,103.8,142.9,102.8z M144,101.2c0.5-0.8,1-1.5,1.5-2.3c0.9,0.4,1.8,0.8,2.8,1.3c-0.4,1-0.8,1.9-1.3,3
	C145.9,102.4,145,101.8,144,101.2z M145.6,92.6c0.3-0.8,0.8-1.1,1.6-0.8C146.8,93,146.8,93,145.6,92.6z M146.6,97.2
	c0.6-2,0.9-2.1,3.2-1.3c-0.3,0.8-0.6,1.5-0.9,2.4C148.1,97.9,147.4,97.6,146.6,97.2z M148.7,93.5c0.9-1.7,0.9-1.7,2.5-1.3
	c-0.2,0.6-0.4,1.1-0.6,1.8C149.9,93.8,149.3,93.7,148.7,93.5z M150.7,90c0.1-0.9,0.7-1,1.5-1C151.9,90.3,151.9,90.3,150.7,90z
	 M151.7,96.8c0.1-0.2,0.4-0.4,0.6-0.3c0.8,0.1,1.5,0.3,2.4,0.5c-0.3,1.1-0.5,2.2-0.7,3.3c-1.1-0.4-2.1-0.8-3.1-1.3
	C151.1,98.2,151.3,97.5,151.7,96.8z M152.6,94.5c0.6-2.4,0.8-2.5,2.9-2c-0.1,0.8-0.3,1.6-0.4,2.6C154.2,94.9,153.4,94.7,152.6,94.5z
	 M154.1,90.3c0.1-1.5,0.2-1.7,1.9-1.7c-0.1,0.6-0.1,1.2-0.2,1.8C155.2,90.4,154.6,90.4,154.1,90.3z M155.2,86.7
	c-0.1-0.9,0.4-1.2,1.2-1.2c0,0.3-0.1,0.7-0.1,1.1C155.9,86.6,155.6,86.6,155.2,86.7z M134.5,87.8c-11.1-0.5-20.8-9.6-20.8-22
	c0-11.7,9.8-22.3,23-21.8c10.9,0.4,21.4,9.7,20.8,23C157.1,77.9,147.8,88.4,134.5,87.8z M154.1,41.6c0.6,0,1.1-0.1,1.7-0.1
	c0.1,0.6,0.1,1.1,0.2,1.6C154.5,43.3,154.5,43.3,154.1,41.6z M156.3,45.3c0.1,0.4,0.1,0.8,0.2,1.1c-0.9,0.1-1.2-0.4-1.2-1.2
	C155.6,45.2,155.9,45.2,156.3,45.3z M152.8,37.6c0.7-0.2,1.4-0.3,2.3-0.5c0.1,0.8,0.3,1.6,0.4,2.4C153.2,39.7,153.4,40,152.8,37.6z
	 M152.1,35.7c-0.4-0.9-0.7-1.8-1.1-2.9c1-0.4,1.9-0.8,3-1.2c0.3,1.2,0.5,2.3,0.7,3.4C153.8,35.3,153,35.5,152.1,35.7z M152.3,42.7
	c-1.1,0.1-1.1,0.1-1.4-0.8C152,41.6,152,41.6,152.3,42.7z M151.3,39.7c-1.4,0.5-1.5,0.5-2.2-1.1C150.8,37.8,150.9,37.9,151.3,39.7z
	 M146.9,34.6c0.8-0.3,1.5-0.6,2.3-1c0.3,0.8,0.6,1.6,0.9,2.4C147.7,36.9,148.1,37,146.9,34.6z M140.4,33.1c0.7-0.5,1.4-1,2.1-1.5
	c0.5,0.8,0.9,1.4,1.3,2.1C142.1,35,141.7,35,140.4,33.1z M142.1,38.2c-0.7,0.6-1.3,0.3-1.7-0.4C141.4,37.2,141.4,37.2,142.1,38.2z
	 M144.4,35.8c0.2-0.1,0.3-0.1,0.6-0.2c0.3,0.5,0.6,1.1,0.9,1.6c-1.5,0.8-1.7,0.7-2.6-0.8C143.7,36.1,144,35.9,144.4,35.8z
	 M147.4,40.3c-0.5-0.2-1.1-0.4-1.8-0.6C146.8,38.8,147,38.9,147.4,40.3z M145.8,33c-0.5-0.8-1-1.6-1.5-2.4c0.9-0.6,1.8-1.2,2.8-1.8
	c0.5,1.1,0.9,2,1.3,3.1C147.4,32.2,146.6,32.6,145.8,33z M143.1,28.8c-0.7-1-1.3-1.9-2-2.9c1.1-0.9,2.1-1.8,3.3-2.8
	c0.6,1.3,1.2,2.5,1.8,3.7C145.2,27.5,144.2,28.2,143.1,28.8z M141.5,30c-0.9,0.6-1.6,1.2-2.5,1.8c-0.7-0.7-1.2-1.3-1.8-1.9
	c0.8-0.8,1.5-1.6,2.4-2.6C140.3,28.2,140.9,29,141.5,30z M135.7,34.2c-0.5-0.4-1.1-0.8-1.7-1.3c0.6-0.6,1.1-1.2,1.7-1.8
	c0.6,0.6,1.1,1.1,1.7,1.8C136.8,33.4,136.2,33.8,135.7,34.2z M136.5,37.4c0,0.1,0,0.2,0,0.3h-1.6c0-0.1,0-0.2-0.1-0.3
	c0.3-0.2,0.5-0.4,0.8-0.7C136,37,136.3,37.2,136.5,37.4z M138.8,34.3c0.4,0.5,0.8,0.9,1.2,1.3c-1.4,1-1.4,1-2.6-0.2
	C137.8,35.1,138.2,34.7,138.8,34.3z M135.8,28.2c-0.9-0.9-1.7-1.7-2.5-2.6c0.8-1,1.7-2.1,2.6-3.4c0.9,1.2,1.8,2.3,2.6,3.4
	C137.6,26.6,136.7,27.4,135.8,28.2z M134.2,29.8c-0.5,0.5-1.1,1.2-1.8,1.9c-0.8-0.5-1.5-1.1-2.3-1.6c0.6-0.9,1.2-1.8,2-2.8
	C132.8,28.2,133.5,29,134.2,29.8z M134,35.4c-1.1,1.1-1.1,1.1-2.4,0.3c0.4-0.4,0.7-0.8,1.1-1.3C133.1,34.8,133.5,35.1,134,35.4z
	 M129.6,34.8c-0.6-0.3-1.3-0.6-2-1c0.4-0.7,0.8-1.3,1.3-2c0.7,0.5,1.3,0.9,2.1,1.4C130.5,33.8,130.1,34.3,129.6,34.8z M130.9,37.7
	c-0.4,0.9-0.5,0.9-1.5,0.5C129.8,37.4,130.2,37.1,130.9,37.7z M125.7,37c0.2-0.3,0.3-0.5,0.4-0.8c0.1-0.2,0.3-0.5,0.5-0.7
	c0.5,0.3,1,0.5,1.5,0.8C127.4,37.7,127.2,37.7,125.7,37z M125.7,39.3c-0.4,0.7-0.8,1.1-1.6,0.7C124.5,38.8,124.6,38.8,125.7,39.3z
	 M128.4,29c-1.1-0.7-2.1-1.4-3.2-2.1c0.6-1.3,1.2-2.5,1.9-3.9c1.2,1,2.3,2,3.4,3C129.8,27,129.1,28,128.4,29z M127.3,30.7
	c-0.5,0.8-1,1.5-1.5,2.3c-0.9-0.4-1.8-0.8-2.8-1.2c0.5-1,0.9-2,1.3-3C125.4,29.4,126.3,30,127.3,30.7z M124.7,34.6
	c-0.9,2.1-1.2,2.2-3.3,1.2c0.3-0.7,0.6-1.5,0.9-2.3C123.2,33.9,123.9,34.3,124.7,34.6z M122.6,38.4c-0.7,1.6-0.7,1.6-2.3,1.3
	C120.2,37.9,120.7,37.6,122.6,38.4z M120.6,41.8c-0.1,1-0.7,1.1-1.5,0.9C119.4,41.5,119.4,41.5,120.6,41.8z M119.5,35.5
	c-0.9-0.2-1.8-0.4-2.8-0.6c0.2-1.1,0.5-2.1,0.7-3.3c1.1,0.4,2.1,0.8,3.2,1.3C120.2,33.7,119.9,34.5,119.5,35.5z M118.7,37.3
	c-0.2,2.1-0.7,2.5-2.8,2c0.1-0.8,0.3-1.6,0.4-2.5C117.1,37,117.9,37.1,118.7,37.3z M117.3,41.6c-0.2,1.5-0.3,1.6-1.8,1.6
	C115.2,41.5,115.4,41.3,117.3,41.6z M116,45.2c0.1,1,0,1-1.1,1.2c0-0.4,0.1-0.7,0.1-1.1C115.4,45.2,115.7,45.2,116,45.2z
	 M157.5,39.4c-0.2-0.9-0.3-1.8-0.5-2.7c1.1-0.2,2.1-0.4,3.2-0.6v3.3H157.5z M156.7,34.7c-0.3-1.2-0.5-2.2-0.7-3.3
	c0-0.2,0.1-0.5,0.3-0.5c1.2-0.4,2.3-0.8,3.7-1.3c0.1,1.6,0.2,3,0.3,4.5C159,34.3,157.9,34.5,156.7,34.7z M155.4,29
	c-0.4-1.4-0.8-2.7-1.1-4.1c0-0.2,0.2-0.5,0.3-0.6c1.4-0.7,2.8-1.4,4.3-2.1c0.3,1.8,0.5,3.5,0.8,5.3C158.3,28,156.9,28.5,155.4,29z
	 M153.6,22.7c-0.6-1.6-1.2-3.2-1.8-5c1.7-0.9,3.4-1.9,5.3-3c0.6,2,1,3.8,1.6,5.6C156.9,21.1,155.3,21.9,153.6,22.7z M152.4,25.5
	c0.4,1.4,0.7,2.7,1.1,4.2c-1.1,0.4-2.1,0.9-3.3,1.3c-0.5-1.1-1-2.2-1.5-3.4C150,26.9,151.1,26.3,152.4,25.5z M151.3,23.9
	c-1.1,0.7-2.2,1.3-3.4,1.9c-0.6-1.3-1.3-2.6-2-4c1.4-1,2.7-2,4.1-3c0.5,1.6,1.1,3,1.5,4.4C151.7,23.4,151.5,23.8,151.3,23.9z
	 M149,17.2c-1.3,0.9-2.6,1.9-3.9,2.8c-0.9-1.5-1.8-3.1-2.8-4.7c1.4-1.2,2.9-2.4,4.4-3.8c0.9,1.8,1.7,3.4,2.5,5.1
	C149.2,16.7,149.1,17.1,149,17.2z M143.5,21.3c-1.2,1-2.3,2-3.5,3c-0.9-1.2-1.8-2.4-2.8-3.6c1.2-1.3,2.3-2.5,3.6-3.9
	C141.7,18.3,142.6,19.8,143.5,21.3z M135.9,19.1c-1.2-1.3-2.4-2.6-3.6-3.9c-0.1-0.1-0.1-0.5,0-0.7c1.1-1.4,2.2-2.8,3.4-4.4
	c1.4,1.7,2.6,3.3,3.9,5C138.4,16.4,137.2,17.7,135.9,19.1z M134.6,20.6c-1,1.3-1.9,2.5-3,3.8c-1.2-1-2.4-2-3.6-3.1
	c0.9-1.6,1.8-3.1,2.9-4.8C132.2,17.9,133.4,19.3,134.6,20.6z M129.2,15.5c-0.9,1.5-1.8,3-2.7,4.5c-1.5-1.1-2.9-2.1-4.5-3.3
	c0.9-1.8,1.9-3.6,2.9-5.6c1.5,1.3,2.9,2.5,4.2,3.7C129.3,14.9,129.3,15.3,129.2,15.5z M125.1,21.5c0.2,0.1,0.3,0.6,0.2,0.7
	c-0.6,1.2-1.2,2.4-1.8,3.7c-1.2-0.7-2.4-1.3-3.6-2c-0.2-0.1-0.3-0.5-0.2-0.7c0.5-1.5,1-2.9,1.6-4.6
	C122.7,19.6,123.9,20.5,125.1,21.5z M122.7,27.7c-0.5,1.1-0.9,2.1-1.4,3.2c-1-0.4-2-0.8-2.9-1.2c-0.2-0.1-0.4-0.5-0.4-0.7
	c0.3-1.1,0.6-2.3,0.9-3.5C120.2,26.3,121.4,27,122.7,27.7z M119.4,18.2c-0.6,1.4-1.1,2.9-1.6,4.4c-1.6-0.7-3.1-1.5-4.8-2.2
	c0.5-1.9,1-3.7,1.6-5.8c1,0.5,2,1,2.9,1.5c0.5,0.3,1.1,0.7,1.6,0.9C119.5,17.4,119.6,17.7,119.4,18.2z M116.8,24.4
	c0.2,0.1,0.3,0.4,0.3,0.6c-0.3,1.3-0.7,2.5-1,3.8c-1.4-0.5-2.8-0.9-4.2-1.4c0.3-1.7,0.5-3.3,0.8-5.1
	C114.1,23.1,115.4,23.8,116.8,24.4z M115.5,30.8c-0.3,1.2-0.5,2.4-0.8,3.6c-1.2-0.2-2.3-0.4-3.5-0.7c0.1-1.4,0.2-2.8,0.3-4.3
	C113,29.9,114.2,30.3,115.5,30.8z M114.3,36.3c-0.2,1-0.3,2-0.5,2.9h-2.7v-3.5C112.3,36,113.3,36.1,114.3,36.3z M111.8,51
	c-0.5-1.3-0.4-1.5,1-1.7C112.4,49.9,112.2,50.3,111.8,51z M112.5,82.4c-1.1,0-1.3-0.6-1-1.5C112.5,81,112.6,81.6,112.5,82.4z
	 M111.4,47.4c0-0.5-0.1-1.1-0.1-1.7c0.6-0.1,1.1-0.2,1.7-0.2C112.9,47.1,112.9,47.1,111.4,47.4z M111.2,43.7v-2.3h2.2
	C113.7,43.3,113.2,43.8,111.2,43.7z M111.3,84.3c1.6,0.2,1.7,0.3,1.6,2c-0.6-0.1-1.1-0.1-1.8-0.2C111.2,85.3,111.2,84.8,111.3,84.3z
	 M113.4,90.4h-2.3v-2.2C113,87.9,113.6,88.4,113.4,90.4z M111.5,92.4c0.8,0,1.5,0,2.4,0c0.2,0.9,0.3,1.8,0.5,2.8
	c-1.1,0.2-2.1,0.4-3.3,0.6c0-1,0-2,0-2.9C111,92.7,111.3,92.4,111.5,92.4z M114.7,97.1c0.3,1.2,0.5,2.2,0.7,3.3
	c0,0.2-0.2,0.5-0.3,0.6c-1.2,0.4-2.3,0.8-3.6,1.3c-0.1-1.5-0.2-2.9-0.3-4.5C112.3,97.5,113.4,97.3,114.7,97.1z M112,104.1
	c1.3-0.4,2.5-0.9,3.9-1.3c0.4,1.4,0.8,2.7,1.1,4.1c0,0.2-0.2,0.5-0.3,0.6c-1.4,0.7-2.8,1.4-4.4,2.1c-0.3-1.7-0.5-3.3-0.7-4.9
	C111.6,104.5,111.9,104.2,112,104.1z M117.7,109.2c0.6,1.7,1.2,3.3,1.8,5c-1.7,1-3.4,1.9-5.2,3c-0.6-2-1.1-3.7-1.6-5.6
	C114.4,110.7,116,110,117.7,109.2z M118.9,106.3c-0.4-1.4-0.8-2.8-1.1-4.2c1.1-0.4,2.1-0.8,3.3-1.3c0.5,1.1,1,2.2,1.5,3.4
	C121.3,104.9,120.2,105.6,118.9,106.3z M120,108c1.1-0.7,2.2-1.3,3.4-1.9c0.7,1.3,1.3,2.6,2,4c-1.4,1-2.7,2-4.1,3
	c-0.6-1.6-1.1-3-1.5-4.5C119.6,108.4,119.8,108.1,120,108z M122.4,114.6c1.3-0.9,2.5-1.9,3.9-2.8c0.9,1.5,1.8,3.1,2.8,4.7
	c-1.4,1.2-2.8,2.4-4.4,3.8c-0.9-1.8-1.7-3.4-2.5-5C122.1,115.1,122.2,114.7,122.4,114.6z M127.8,110.5c1.2-1,2.3-2,3.5-3
	c0.9,1.2,1.8,2.4,2.8,3.6c-1.2,1.3-2.3,2.6-3.6,3.9C129.6,113.5,128.7,112,127.8,110.5z M135.4,112.7c1.2,1.3,2.4,2.6,3.6,3.9
	c0.1,0.1,0.1,0.5,0,0.7c-1.1,1.4-2.2,2.8-3.4,4.4c-1.4-1.8-2.6-3.3-3.9-5C132.9,115.4,134.1,114.1,135.4,112.7z M136.7,111.2
	c1-1.3,1.9-2.5,3-3.8c1.2,1.1,2.4,2.1,3.6,3.2c-0.9,1.6-1.9,3.1-2.9,4.8C139.1,113.9,137.9,112.5,136.7,111.2z M144.8,111.8
	c1.5,1.1,2.9,2.1,4.5,3.3c-0.9,1.8-1.9,3.6-2.9,5.6c-1.6-1.4-3.1-2.6-4.6-3.9C142.8,115.1,143.8,113.5,144.8,111.8z M145.8,110
	c0.7-1.4,1.3-2.7,2-4.1c1.2,0.7,2.4,1.4,3.6,2.1c0.1,0.1,0.3,0.4,0.2,0.6c-0.5,1.5-1,3-1.6,4.6C148.5,112.1,147.1,111.1,145.8,110z
	 M148.6,104.1c0.5-1.1,0.9-2.1,1.4-3.2c1.1,0.5,2.2,0.9,3.4,1.4c-0.4,1.3-0.7,2.6-1.1,4C151.1,105.5,149.9,104.9,148.6,104.1z
	 M152.2,112.9c0.5-1.2,0.9-2.4,1.3-3.7c1.6,0.8,3.2,1.5,4.8,2.3c-0.5,1.9-1,3.7-1.6,5.8c-1.3-0.7-2.6-1.4-3.7-2.1
	C151.7,114.3,151.7,114.3,152.2,112.9z M154.7,107.5c-0.2-0.1-0.5-0.5-0.4-0.7c0.3-1.2,0.7-2.4,1-3.8c1.3,0.4,2.5,0.8,3.8,1.3
	c0.2,0.1,0.4,0.4,0.3,0.5c-0.2,1.5-0.4,3-0.7,4.7C157.3,108.7,156,108.1,154.7,107.5z M155.8,101c0.3-1.2,0.5-2.4,0.8-3.6
	c1,0.2,2,0.3,3,0.6c0.2,0,0.5,0.4,0.4,0.5c0,1.2-0.2,2.5-0.3,3.9C158.3,101.9,157.1,101.5,155.8,101z M157,95.5
	c0.2-1,0.3-1.9,0.5-2.9h2.7v3.5C159,95.9,158.1,95.7,157,95.5z M157.9,90.5c-0.3-1.9,0.1-2.4,2.2-2.4v2.4H157.9z M159.5,80.8
	c0.5,1.4,0.5,1.4-0.7,1.7c-0.1-0.1-0.2-0.1-0.3-0.2C158.9,81.9,159.2,81.5,159.5,80.8z M158.8,49.4c1.2,0.1,1.2,0.1,1,1.5
	C158.9,50.8,158.7,50.2,158.8,49.4z M159.9,84.4c0.4,1.7,0.3,1.8-1.4,1.8C158.3,84.8,158.4,84.7,159.9,84.4z M160,47.5
	c-1.6-0.3-1.7-0.4-1.6-2c0.6,0.1,1.1,0.2,1.7,0.3C160.1,46.4,160.1,47,160,47.5z M157.9,41.5h2.4c0,0.4,0,0.8,0,1.2
	c0,0.3-0.1,0.7-0.1,1C158.2,43.8,157.9,43.5,157.9,41.5z M163.4,10.5c-1.8,0.5-3.5,1-5.2,1.5c-0.8-1.5-1.6-3-2.4-4.5
	C157.9,6.5,161.8,8,163.4,10.5z M153.7,8.2c0.9,1.5,1.8,3,2.7,4.6c-1.9,1.1-3.6,2-5.4,3c-0.9-1.8-1.8-3.5-2.8-5.5
	c1.6-0.8,3.2-1.5,4.8-2.3C153.2,8,153.6,8.1,153.7,8.2z M151.8,6.3c-1.5,0.8-3.1,1.6-4.6,2.4c-1.1-1.4-2.3-2.8-3.4-4.1
	C145.9,3.2,150.1,4.1,151.8,6.3z M141.2,5.7c0.2-0.1,0.7-0.1,0.8,0.1c1.2,1.3,2.4,2.7,3.6,4c-1.6,1.4-3,2.6-4.5,3.8
	c-1.3-1.6-2.5-3.2-4-5C138.5,7.6,139.8,6.6,141.2,5.7z M139.7,4.1c-1.3,1-2.5,2-3.9,3.1c-1.3-1.1-2.6-2.1-4-3.2
	C134.1,2.5,137.4,2.5,139.7,4.1z M129.5,5.6c0.1-0.1,0.6-0.2,0.7-0.1c1.4,1,2.8,2,4.2,3.1c-1.4,1.7-2.6,3.2-3.8,4.8
	c-1.5-1.3-3-2.6-4.7-4C127.2,8.1,128.3,6.8,129.5,5.6z M127.7,4.4c-1.1,1.3-2.2,2.6-3.3,3.9c-1.4-0.8-2.9-1.5-4.3-2.3
	C121.5,4.1,125.3,3.2,127.7,4.4z M118.1,8c0.1-0.1,0.5-0.3,0.6-0.2c1.5,0.7,3.1,1.4,4.6,2.2c-1,2-2,3.8-2.9,5.7
	c-1.7-0.9-3.3-1.9-5.2-2.9C116.2,11.1,117.1,9.5,118.1,8z M116.1,7.1c-0.9,1.6-1.8,3.2-2.6,4.8c-1.6-0.5-3.3-1-5-1.5
	C109.7,8,113,6.6,116.1,7.1z M107,12.7c0.1-0.2,0.4-0.4,0.6-0.3c1.7,0.4,3.5,0.9,5.2,1.4c-0.6,2.1-1.1,4-1.7,5.9
	c-1.9-0.6-3.7-1.2-5.8-1.9C105.8,16,106.4,14.3,107,12.7z M110.7,21.6c-0.3,1.8-0.5,3.5-0.8,5.2c-1.8-0.4-3.5-0.9-5.4-1.4
	c0.2-1.9,0.3-3.8,0.5-5.8C107,20.4,108.8,21,110.7,21.6z M97,61.9c1-0.7,1.8-1.2,2.7-1.8c0.6,0.8,1.2,1.6,1.8,2.5
	c-0.7,0.6-1.3,1.2-1.9,1.8C98.7,63.5,97.9,62.8,97,61.9z M98.2,65.8c-1,0.9-1.8,1.7-2.8,2.6c-1.1-0.8-2.2-1.7-3.5-2.7
	c1.2-0.9,2.3-1.7,3.3-2.5C96.2,64,97.1,64.9,98.2,65.8z M95.7,60.4c-0.9-1.1-1.8-2.1-2.8-3.3c1.3-0.6,2.5-1.2,3.7-1.8
	c0.7,1,1.3,2.1,2,3.1C97.6,59.1,96.7,59.7,95.7,60.4z M94,61.6c-1.2,0.9-2.4,1.8-3.6,2.8c-1.3-1.2-2.6-2.3-3.9-3.6
	c1.6-0.9,3-1.8,4.6-2.7C92,59.3,93,60.4,94,61.6z M94.1,69.9c-1,1.2-2.1,2.4-3.1,3.6c-1.6-1-3.1-1.9-4.8-2.9
	c1.4-1.3,2.8-2.5,4.1-3.7C91.6,67.9,92.9,68.9,94.1,69.9z M95.8,71.1c1,0.7,2,1.4,3,2.1c-0.7,1.1-1.4,2.1-2.1,3.2
	c-1.3-0.7-2.5-1.3-3.9-1.9C93.8,73.3,94.8,72.2,95.8,71.1z M97.2,69.7c0.8-0.7,1.6-1.5,2.5-2.2c0.4,0.5,1.1,1.2,1.7,1.9
	c-0.4,0.6-0.9,1.3-1.5,2.1C99,70.9,98.1,70.3,97.2,69.7z M100.9,65.8c0.6-0.6,1.1-1.1,1.8-1.7c0.5,0.6,0.9,1.2,1.3,1.7
	c-0.4,0.5-0.8,1.1-1.2,1.7C102.1,67,101.5,66.4,100.9,65.8z M103,70.5c0.5,0.5,1,0.9,1.6,1.4c-0.3,0.6-0.6,1.3-1,2
	c-0.7-0.4-1.3-0.8-2-1.3C102,71.9,102.4,71.3,103,70.5z M105.1,64.2c-0.3-0.4-0.7-0.9-1-1.4c0.4-0.4,0.9-0.8,1.3-1.2
	C106.4,62.9,106.3,63.1,105.1,64.2z M105.4,70c-0.4-0.4-0.8-0.8-1.2-1.1c0.4-0.5,0.7-0.9,1-1.3C106.3,68.7,106.3,68.7,105.4,70z
	 M104.4,76.8c2.3,1.2,2.1,0.7,1.2,3.3c-0.8-0.3-1.5-0.6-2.3-0.9C103.7,78.4,104,77.6,104.4,76.8z M105.3,75c0.3-0.5,0.5-1.1,0.8-1.6
	c1.4,1,1.4,1,0.7,2.5C106.3,75.6,105.8,75.3,105.3,75z M107.2,65.1c0.7,0.5,0.5,1.1,0,1.6C106.3,66.1,106.5,65.6,107.2,65.1z
	 M106.1,58.3c-0.3-0.6-0.5-1.1-0.8-1.7c0.6-0.3,1.1-0.6,1.6-1C107.6,57.2,107.5,57.4,106.1,58.3z M107.1,47.7
	c-0.1-0.4-0.2-0.7-0.3-1.2c0.8-0.1,1.6-0.3,2.3-0.4c0.6,1.9,0.4,2.2-1.8,2.7C107.2,48.4,107.1,48.1,107.1,47.7z M106.4,44.5
	c-0.2-1.1-0.4-2.1-0.6-3.2h3.3v2.8C108.2,44.2,107.4,44.4,106.4,44.5z M109.2,39.2h-3.7c-0.2-1.4-0.4-2.8-0.6-4.4
	c1.4,0.2,2.7,0.3,4,0.5c0.1,0,0.3,0.4,0.3,0.6C109.2,37,109.2,38,109.2,39.2z M105.8,51.5c1,1.9,0.9,2.1-1.4,3.2
	c-0.2-0.3-0.3-0.7-0.5-1.1c-0.2-0.4-0.3-0.7-0.5-1.2C104.2,52.1,105,51.8,105.8,51.5z M103.5,57.6c0.4,0.7,0.7,1.4,1,2.1
	c-0.5,0.5-1,0.9-1.6,1.5c-0.5-0.8-1-1.5-1.6-2.2C102.1,58.5,102.8,58.1,103.5,57.6z M100.2,57.4c-0.6-0.9-1.2-1.9-1.8-2.9
	c1.1-0.5,2-0.9,3.1-1.3c0.4,0.9,0.8,1.7,1.2,2.6C101.9,56.3,101.1,56.8,100.2,57.4z M97.4,52.8c-0.7-1.2-1.3-2.3-2.1-3.6
	c1.4-0.4,2.7-0.7,4.2-1.1c0.4,1.1,0.9,2.1,1.3,3.3C99.6,51.8,98.5,52.3,97.4,52.8z M95.5,53.6c-1.3,0.7-2.6,1.3-4,2
	c-1-1.3-2-2.7-3-4.1c1.6-0.6,3-1.1,4.5-1.5c0.2-0.1,0.5,0.2,0.6,0.4C94.3,51.3,94.9,52.4,95.5,53.6z M89.8,56.5
	c-1.5,0.9-2.9,1.8-4.3,2.6c-0.2,0.1-0.5,0.1-0.6,0c-1.2-1.3-2.3-2.6-3.6-4.1c1.9-1,3.6-1.8,5.4-2.7C87.7,53.7,88.7,55.1,89.8,56.5z
	 M88.8,65.6c-1.4,1.3-2.8,2.5-4.3,3.9c-1.5-1.2-3.1-2.4-4.7-3.8c1.7-1.4,3.3-2.6,4.9-3.9C86.1,63.2,87.4,64.4,88.8,65.6z M84.7,72.3
	c0.1-0.1,0.4-0.1,0.6,0c1.5,0.9,3,1.8,4.5,2.7c-1.1,1.5-2.1,2.9-3.3,4.4c-1.8-0.9-3.6-1.8-5.6-2.9C82.2,75.1,83.4,73.7,84.7,72.3z
	 M91.5,76c1.4,0.7,2.7,1.4,4.1,2.1c-0.7,1.2-1.3,2.4-2,3.5c-0.1,0.2-0.5,0.3-0.7,0.3c-1.5-0.5-2.9-1-4.6-1.6
	C89.5,78.7,90.5,77.4,91.5,76z M97.4,78.9c1.1,0.5,2.1,0.9,3.2,1.4c-0.5,1.1-0.9,2.3-1.4,3.4c-1.3-0.4-2.6-0.7-4-1.1
	C96,81.3,96.7,80.1,97.4,78.9z M98.5,77.2c0.7-1,1.3-2,1.9-2.9c0.8,0.5,1.5,0.9,2.3,1.4c-0.4,0.9-0.8,1.8-1.2,2.8
	C100.4,78,99.5,77.6,98.5,77.2z M102.5,81c0.9,0.4,1.8,0.7,2.7,1c-0.2,1-0.4,1.9-0.6,2.8c-1.1-0.2-2.1-0.5-3.3-0.7
	C101.7,83.1,102.1,82.1,102.5,81z M105.1,92.7c0-0.1,0.3-0.3,0.5-0.3c1.1,0,2.2,0,3.4,0v3.7c-1.4,0.2-2.8,0.4-4.4,0.6
	C104.8,95.2,104.9,93.9,105.1,92.7z M105.5,90.4c0.2-1.1,0.4-2,0.6-3.1c1,0.2,2,0.3,2.9,0.5v2.7H105.5z M106.5,85.3
	c0.2-0.9,0.4-1.6,0.5-2.4c2.2,0.3,2.4,0.5,2,2.8C108.2,85.6,107.4,85.4,106.5,85.3z M107.5,70.6c0.6,0.4,0.9,0.9,0.4,1.6
	C107.1,71.7,106.8,71.3,107.5,70.6z M107.9,61.4c-1-1.1-1-1.2,0.1-1.9c0.1,0,0.2,0.1,0.3,0.1C108.2,60.1,108,60.7,107.9,61.4z
	 M109.5,50.3c0.3,1.5,0.3,1.5-1.1,2.2C107.5,51,107.7,50.6,109.5,50.3z M109.3,33.4c-1.4-0.2-2.8-0.3-4.1-0.6
	c-0.2,0-0.4-0.3-0.4-0.5c-0.1-1.5-0.2-3.1-0.3-4.9c1.7,0.5,3.2,0.8,4.8,1.3c0.2,0,0.4,0.3,0.4,0.4C109.5,30.6,109.4,32,109.3,33.4z
	 M104.8,46.9c0.2,0.9,0.4,1.7,0.6,2.7c-1,0.4-1.9,0.7-2.9,1.1c-0.4-1-0.8-1.9-1.2-3C102.5,47.4,103.6,47.1,104.8,46.9z M101.2,45.6
	c-0.2,0-0.5-0.1-0.6-0.3c-0.4-1.2-0.8-2.3-1.3-3.6c1.5-0.1,2.7-0.2,4-0.3c0.2,0,0.5,0.2,0.6,0.4c0.2,1,0.4,2.1,0.6,3.2
	C103.3,45.2,102.2,45.4,101.2,45.6z M98.7,39.7c-0.4-1.7-0.9-3.5-1.4-5.4c1.9,0.1,3.6,0.2,5.3,0.3c0.1,0,0.3,0.2,0.3,0.4
	c0.2,1.4,0.3,2.9,0.5,4.4C101.9,39.5,100.4,39.6,98.7,39.7z M102.6,32.6c-1.7-0.1-3.4-0.1-5.2-0.2c-0.2,0-0.5-0.2-0.5-0.4
	c-0.3-1.8-0.5-3.6-0.7-5.6c2.2,0.3,4.2,0.5,6.4,0.8V32.6z M97.5,42.4c0.4,1.2,0.8,2.5,1.3,3.8c-1.4,0.4-2.7,0.8-4,1.1
	c-0.2,0-0.6-0.1-0.6-0.3c-0.7-1.4-1.4-2.8-2.1-4.4c1.7-0.3,3.3-0.5,4.9-0.7C97.1,41.9,97.4,42.2,97.5,42.4z M92.4,48
	c-1.6,0.6-3.1,1.1-4.6,1.7c-0.1,0-0.4-0.1-0.5-0.2c-0.9-1.6-1.8-3.2-2.8-4.9c2-0.6,3.8-1.1,5.6-1.6C90.8,44.7,91.6,46.3,92.4,48z
	 M85.5,50.5c-1.7,0.9-3.5,1.8-5.3,2.7c-1-1.5-1.9-3.1-2.5-4.8c-0.1-0.1,0-0.5,0.2-0.5c1.5-0.9,3.1-1.8,4.6-2.7
	C83.6,47.1,84.5,48.8,85.5,50.5z M83.3,60.4c-1.6,1.3-3.2,2.6-5,4c-1-1.4-2-2.7-3-4.1c-0.1-0.1,0-0.6,0.1-0.7
	c1.3-1.2,2.7-2.4,4.1-3.7C80.9,57.5,82.1,59,83.3,60.4z M83.1,70.9c-1.3,1.5-2.5,3-4,4.7c-1.3-1.2-2.5-2.3-3.7-3.5
	c-0.2-0.2-0.3-0.7-0.2-0.8c1-1.4,2-2.8,3.1-4.2C80,68.5,81.5,69.7,83.1,70.9z M79.6,78.3c2,1,3.8,2,5.7,2.9c-0.9,1.7-1.8,3.3-2.8,5
	c-1.8-0.7-3.4-1.6-4.9-2.8c-0.1-0.1-0.2-0.5-0.1-0.7C78.2,81.2,78.9,79.8,79.6,78.3z M87,82.4c0.1-0.2,0.5-0.3,0.7-0.3
	c1.6,0.5,3.1,1.1,4.7,1.7c-0.7,1.5-1.3,2.9-2,4.3c-0.1,0.2-0.4,0.3-0.6,0.3C88,88,86.3,87.6,84.3,87C85.3,85.3,86.1,83.8,87,82.4z
	 M94.2,84.8c0.1-0.2,0.4-0.3,0.6-0.3c1.3,0.3,2.5,0.7,3.8,1.1c-0.4,1.3-0.8,2.5-1.3,3.7c-0.1,0.2-0.3,0.4-0.5,0.4
	c-1.5-0.2-3-0.4-4.7-0.7C92.8,87.5,93.5,86.1,94.2,84.8z M96.8,99.4c0-0.2,0.4-0.4,0.6-0.4c1.6,0,3.2,0,4.9,0
	c-0.1,1.7-0.1,3.4-0.2,5.2c0,0.1-0.2,0.3-0.3,0.4c-1.8,0.2-3.7,0.5-5.7,0.7C96.3,103.2,96.5,101.3,96.8,99.4z M102.1,96.8
	c-1.6,0.1-3.2,0.2-4.9,0.3c0.5-1.8,0.9-3.4,1.3-5.2c1.6,0.1,3,0.2,4.6,0.3c-0.2,1.5-0.3,2.7-0.5,4C102.6,96.5,102.3,96.8,102.1,96.8
	z M99.2,90c0.5-1.4,0.9-2.6,1.3-4c1.2,0.3,2.4,0.5,3.6,0.8c-0.2,1.1-0.4,2.2-0.6,3.5C102.1,90.2,100.8,90.1,99.2,90z M104.4,98.9
	c0-0.1,0.3-0.3,0.5-0.3c1.4-0.2,2.8-0.3,4.3-0.5c0.1,1.5,0.2,2.8,0.3,4.2c0,0.2-0.2,0.6-0.4,0.7c-1.5,0.4-3.1,0.8-4.9,1.3
	C104.2,102.3,104.2,100.6,104.4,98.9z M109.3,81.4c-0.6-0.2-1.1-0.4-1.8-0.6c0.2-0.6,0.3-1.2,0.4-1.8
	C109.7,79.6,109.8,79.8,109.3,81.4z M108.6,76.9c0.1-0.4,0.2-0.7,0.3-1.1c0.8,0.4,1.2,0.8,0.7,1.7C109.4,77.3,109,77.1,108.6,76.9z
	 M109.4,56c-0.9-1.3-0.8-1.4,0.3-1.9c0.1,0,0.2,0.1,0.3,0.1C109.9,54.8,109.7,55.3,109.4,56z M104.9,12.3c-0.5,1.7-1,3.4-1.5,5
	c-1.8-0.2-3.6-0.4-5.3-0.5C98.8,14.2,101.8,12.3,104.9,12.3z M97,19.3c0-0.2,0.4-0.4,0.7-0.4c1.8,0.1,3.5,0.2,5.4,0.3
	c-0.2,2.1-0.3,3.9-0.5,5.9c-2.1-0.2-4.1-0.5-6.4-0.7C96.4,22.6,96.7,21,97,19.3z M95.5,34.8c0.4,1.7,0.8,3.4,1.2,5.2
	c-1.8,0.3-3.6,0.5-5.5,0.8c-0.6-2-1.3-3.9-1.9-6c2-0.1,3.8-0.3,5.6-0.3C95.1,34.4,95.4,34.6,95.5,34.8z M94.8,19.4
	c-0.2,1.6-0.3,3.2-0.5,4.9c-1.7,0.2-3.3,0.4-5,0.5C89.3,22.5,92.2,19.7,94.8,19.4z M89,27c1.7-0.3,3.5-0.6,5.2-0.8
	c0.2,2.2,0.5,4.1,0.7,6.1c-2,0.2-3.9,0.3-6.1,0.5c-0.1-1.8-0.1-3.6-0.2-5.4C88.6,27.3,88.9,27.1,89,27z M87.3,35
	c0.7,2.1,1.3,4,1.9,6.1c-1.8,0.5-3.6,1-5.7,1.6c-0.4-1.8-0.9-3.6-1.3-5.3c0-0.2,0.2-0.6,0.4-0.7C84.2,36.1,85.7,35.6,87.3,35z
	 M86.5,28.1c0.1,1.7,0.3,3.4,0.4,5.1c-1.6,0.5-3.2,1-4.7,1.5C82.1,32,84,29.1,86.5,28.1z M80.2,38.2c0.5,1.7,1,3.5,1.5,5.2
	c-1.5,0.8-3,1.6-4.6,2.5C76.6,42.7,77.8,39.8,80.2,38.2z M76,49.7c0.4,0.8,0.7,1.6,1.1,2.3c0.4,0.7,0.8,1.5,1.3,2.2
	c-1.4,1.1-2.8,2.3-4.2,3.5C73,55.5,73.8,51.4,76,49.7z M73.8,61.9c1.1,1.3,2.1,2.6,3.1,3.9c-1,1.3-2.1,2.6-3.2,3.9
	C72.2,67.6,72.3,64.2,73.8,61.9z M74.1,73.9c1.3,1.1,2.6,2.2,3.9,3.3c-0.7,1.4-1.5,2.9-2.3,4.3C73.9,80.3,73,76.4,74.1,73.9z
	 M80.1,93c-2.3-1-4-4.9-3.2-7.5c1.6,0.9,3.1,1.7,4.8,2.6C81.1,89.8,80.6,91.4,80.1,93z M86.5,103.5c-2.4-0.6-4.8-4.2-4.4-6.9
	c0.1,0,0.1,0,0.2,0c1.6,0.5,3.2,1,4.8,1.6C86.8,100,86.7,101.8,86.5,103.5z M87,96.1c-1.5-0.5-3-1-4.5-1.5c-0.2-0.1-0.4-0.5-0.4-0.7
	c0.4-1.7,0.9-3.3,1.3-5.1c2.1,0.6,4,1.1,5.9,1.7c-0.6,1.8-1.1,3.5-1.7,5.3C87.6,95.9,87.2,96.1,87,96.1z M89.1,106.8
	c1.6,0.2,3.3,0.3,4.9,0.5c0.2,1.7,0.4,3.4,0.6,5.1C92.1,112.1,89.6,109.5,89.1,106.8z M94.1,105.4c-1.7-0.3-3.3-0.5-5-0.8
	c-0.2,0-0.5-0.4-0.4-0.7c0.1-1.8,0.2-3.6,0.3-5.4c2.1,0.2,4,0.3,5.9,0.5C94.6,101.1,94.3,103.1,94.1,105.4z M95.3,96.7
	c0,0.1-0.4,0.3-0.6,0.3c-1.7-0.1-3.4-0.2-5.3-0.4c0.7-2,1.3-3.9,1.9-5.7c1.8,0.3,3.5,0.5,5.2,0.8C96.1,93.4,95.7,95.1,95.3,96.7z
	 M96.7,112.5c-0.3-1.7-0.5-3.4-0.8-5.2c2.2-0.2,4.1-0.5,6.1-0.7c0.2,2,0.3,3.9,0.5,5.9c-1.7,0.4-3.5,0.5-5.3,0.4
	C97,112.9,96.8,112.6,96.7,112.5z M97.9,115.1c1.7-0.1,3.4-0.3,5.1-0.4c0.5,1.6,1,3.2,1.5,4.7C102,119.5,98.7,117.6,97.9,115.1z
	 M104.1,106.5c0-0.1,0.2-0.4,0.3-0.4c1.7-0.4,3.4-0.8,5.2-1.2c0.3,1.8,0.5,3.5,0.8,5.5c-2,0.6-3.9,1.3-6,2
	C104.3,110.3,104.2,108.4,104.1,106.5z M107.2,119.3c-0.2,0-0.6-0.2-0.7-0.3c-0.6-1.5-1.1-3.1-1.7-4.7c2.1-0.7,4.1-1.3,6.1-1.9
	c0.5,1.7,1,3.5,1.5,5.2c0,0.1-0.2,0.5-0.3,0.5C110.4,118.4,108.8,118.9,107.2,119.3z M108,121.3c1.7-0.5,3.5-1,5.2-1.5
	c0.8,1.5,1.6,3.1,2.4,4.6C112.8,125.1,109.6,123.8,108,121.3z M117.6,123.5c-0.9-1.5-1.7-2.9-2.6-4.5c1.9-1.1,3.6-2,5.4-3
	c0.9,1.8,1.8,3.5,2.8,5.5c-1.6,0.8-3.2,1.6-4.9,2.3C118.1,123.9,117.7,123.7,117.6,123.5z M119.5,125.6c1.6-0.8,3.1-1.6,4.6-2.4
	c1.1,1.4,2.3,2.8,3.4,4.2C125.2,128.5,121.5,127.8,119.5,125.6z M129.2,126c-1.2-1.3-2.3-2.6-3.5-3.9c1.6-1.4,3.1-2.6,4.5-3.8
	c1.3,1.6,2.5,3.2,4,5c-1.4,1-2.7,2-4.1,3C129.9,126.3,129.4,126.2,129.2,126z M131.7,127.7c1.3-1,2.5-2,3.8-3.1c1.3,1,2.6,2.1,4,3.2
	C137.2,129.3,133.8,129.3,131.7,127.7z M141.5,126.7c-0.9-0.6-1.6-1-2.3-1.6c-0.8-0.6-1.5-1.3-2.3-1.9c1.3-1.6,2.5-3.2,3.8-4.7
	c1.5,1.3,3,2.6,4.7,4C144.1,123.8,142.8,125.2,141.5,126.7z M143.7,127.4c1.1-1.3,2.2-2.6,3.3-3.9c1.5,0.8,2.9,1.5,4.3,2.3
	C149.7,127.7,146,128.5,143.7,127.4z M153.2,123.9c-0.1,0.1-0.5,0.3-0.6,0.2c-1.5-0.7-3.1-1.4-4.6-2.2c1-2,2-3.8,2.9-5.7
	c1.7,0.9,3.3,1.8,5.2,2.9C155.2,120.7,154.2,122.3,153.2,123.9z M155.3,124.6c0.9-1.6,1.7-3.1,2.6-4.7c1.6,0.5,3.3,1,4.9,1.5
	C161.7,123.8,157.7,125.5,155.3,124.6z M164.3,119.2c-0.1,0.2-0.5,0.3-0.8,0.2c-1.6-0.4-3.2-0.9-4.9-1.3c0.6-2.1,1.1-4,1.7-5.9
	c1.9,0.6,3.7,1.2,5.8,1.9C165.5,115.8,164.9,117.5,164.3,119.2z M160.6,110.2c0.3-1.8,0.5-3.5,0.8-5.2c1.7,0.4,3.4,0.8,5,1.2
	c0.1,0,0.3,0.4,0.3,0.6c-0.1,1.7-0.2,3.4-0.4,5.4C164.3,111.5,162.5,110.9,160.6,110.2z M166.4,119.5c0.5-1.7,1-3.3,1.5-5
	c0.9,0.1,1.8,0.2,2.7,0.3c0.9,0.1,1.7,0.1,2.6,0.2C172.9,117.3,169.3,119.7,166.4,119.5z M174.3,112.6c-0.1,0.2-0.5,0.4-0.7,0.4
	c-1.7-0.1-3.5-0.2-5.3-0.3c0.2-2.1,0.3-4,0.5-5.9c2,0.2,4.1,0.5,6.2,0.7C175,109.2,174.8,110.9,174.3,112.6z M168.7,104.7v-5.3
	c1.7,0,3.5,0,5.2,0c0.1,0,0.4,0.2,0.4,0.4c0.2,1.8,0.5,3.6,0.7,5.6C172.8,105.2,170.8,105,168.7,104.7z M175.9,97
	c-0.4-1.7-0.8-3.4-1.2-5.1c1.8-0.3,3.5-0.5,5.5-0.8c0.6,1.9,1.3,3.8,2,6c-2.1,0.1-3.9,0.3-5.7,0.4C176.2,97.5,175.9,97.2,175.9,97z
	 M176.5,112.5c0.2-1.7,0.4-3.3,0.5-4.9c1.7-0.2,3.4-0.4,5.1-0.6C181.8,109.5,179.5,111.8,176.5,112.5z M182.3,104.8
	c-1.7,0.3-3.5,0.5-5.2,0.8c-0.2-2.2-0.5-4.1-0.7-6.1c2-0.2,3.9-0.3,6.1-0.5c0.1,1.8,0.1,3.6,0.2,5.4
	C182.7,104.5,182.4,104.8,182.3,104.8z M184,96.8c-0.7-2.1-1.3-4.1-1.9-6.1c1.8-0.5,3.6-1,5.5-1.6c0.8,1.7,1.3,3.5,1.5,5.4
	c0,0.2-0.2,0.5-0.3,0.5C187.2,95.7,185.6,96.2,184,96.8z M184.8,103.7c-0.1-1.7-0.3-3.4-0.4-5.1c0.8-0.2,1.6-0.5,2.3-0.7
	c0.8-0.2,1.6-0.5,2.3-0.7v0C189.4,99.6,187.3,102.8,184.8,103.7z M191.1,93.6c-0.5-1.8-1-3.5-1.5-5.2c1.5-0.8,3-1.6,4.6-2.4
	C194.9,88.6,193.6,91.8,191.1,93.6z M195.3,82.1c-0.8-1.5-1.6-3.1-2.4-4.6c1.4-1.1,2.7-2.3,4.2-3.4
	C198.3,76.7,197.5,80.3,195.3,82.1z M197.5,69.9c-1-1.3-2.1-2.6-3.1-3.9c1.1-1.3,2.1-2.6,3.2-4C199.1,64.2,199.1,67.4,197.5,69.9z"
	/>
<path d="M28.5,151.5v23.7h-2.4v-17.9l-0.2,0c-0.2,0.8-0.3,1.6-0.5,2.4c-1,4.9-1.9,9.7-2.8,14.6c-0.2,0.8-0.5,1.1-1.3,1
	c0,0-0.1,0-0.1,0c-1.4,0-1.4,0-1.7-1.4c-1.1-5.2-2.2-10.4-3.2-15.6c-0.1-0.2-0.1-0.5-0.3-0.7v17.8h-2.3v-23.7c1.1,0,2.2,0,3.3,0
	c0.2,0,0.5,0.4,0.5,0.7c1,4.5,1.9,9,2.8,13.5c0.3,1.4,0.6,2.7,1.1,4.1c1.2-6.1,2.4-12.1,3.6-18.3H28.5z"/>
<path d="M106.2,169.7c0,0.4,0,0.9-0.1,1.3c-0.6,3.8-4.5,5.7-8,3.9c-1.4-0.8-2.1-2.1-2.4-3.6c-0.1-0.6-0.2-1.3-0.2-2
	c0-5.7,0-11.4,0-17.1c0-0.2,0-0.4,0-0.7h2.6v1.1c0,5.5,0,11,0,16.4c0,0.7,0.1,1.5,0.3,2.2c0.4,1.3,1.2,1.8,2.6,1.8
	c1.3,0,2.1-0.7,2.4-1.9c0.1-0.6,0.2-1.2,0.2-1.8c0-5.5,0-11.1,0-16.6v-1.2h2.4c0,0.3,0.1,0.6,0.1,0.9
	C106.2,158.2,106.2,163.9,106.2,169.7z"/>
<path d="M125.8,171.1c-0.5,2.7-2.3,4.2-5.2,4.3c-3,0-4.8-1.4-5.3-4.2c-0.2-1-0.1-2-0.2-3h2.6c0,0.7,0,1.4,0,2.1
	c0.1,1.6,1,2.6,2.4,2.7c1.8,0.1,2.8-0.8,3-2.6c0.3-2-0.6-3.6-2-4.9c-1.2-1.1-2.4-2-3.6-3.1c-2.2-2.1-2.7-4.7-2-7.6
	c0.6-2.5,2.6-3.7,5.5-3.6c2.6,0.2,4.3,1.7,4.7,4.3c0.1,0.7,0.1,1.4,0.2,2.2h-2.5c-0.1-0.7-0.1-1.4-0.2-2c-0.3-1.4-1.1-2.1-2.5-2.1
	c-1.4,0-2.2,0.7-2.6,2.1c-0.5,1.9,0.1,3.6,1.5,4.9c1.1,1.1,2.3,2,3.5,3.1C125.4,165.7,126.3,168.1,125.8,171.1z"/>
<path d="M48.4,155.6c-0.3-2.6-1.8-4-4.3-4.2c-2-0.1-4,0-6,0v23.7h2.6v-9.3c1,0,1.9,0,2.9,0c2.7-0.1,4.6-1.5,4.8-4.2
	C48.7,159.6,48.7,157.6,48.4,155.6z M45.9,160.9c-0.1,1.7-1,2.5-2.7,2.5c-0.8,0-1.6,0-2.5,0v-9.6c1.2,0.1,2.4,0,3.6,0.3
	c1.2,0.2,1.5,1.3,1.6,2.3C46,157.9,46,159.4,45.9,160.9z"/>
<polygon points="67.2,172.7 67.2,175.1 57.6,175.1 57.6,151.4 67.2,151.4 67.2,153.8 60.2,153.8 60.2,161.9 65.9,161.9 65.9,164.3 
	60.2,164.3 60.2,172.7 "/>
<path d="M218.6,151.5v23.6c-1.6,0.3-1.7,0.3-2.1-1.1c-2.2-6.2-4.3-12.4-6.5-18.6c-0.1-0.2-0.2-0.4-0.4-0.6v20.3h-1.4v-23.7
	c0.6,0,1.1-0.1,1.6,0c0.3,0.1,0.6,0.5,0.7,0.8c2.1,5.8,4.1,11.6,6.2,17.4c0.1,0.3,0.3,0.7,0.4,1c0.1,0,0.2,0,0.2,0v-19.2H218.6z"/>
<path d="M176.6,171.2c0-1.1,0-2.2,0-3.4c-0.1-1.8-0.9-3.2-2.7-3.9c-0.1,0-0.2-0.1-0.4-0.2c1.7-0.6,2.8-1.7,2.9-3.3
	c0.1-1.8,0.1-3.7-0.1-5.6c-0.2-1.6-1.2-2.8-2.7-3.1c-2.3-0.3-4.7-0.3-7-0.5v23.8h1.6v-10.6c1.4,0.1,2.8,0.1,4.1,0.3
	c1.6,0.2,2.4,1.2,2.6,2.8c0.1,0.6,0.1,1.2,0.1,1.8c0,1.4,0,2.9,0.1,4.3c0.1,1.5,0.4,1.7,1.8,1.5
	C176.8,173.8,176.7,172.5,176.6,171.2z M168.2,163v-10c1.4,0,2.8-0.1,4.1,0c1.4,0.1,2.4,1.1,2.5,2.6c0.1,1.6,0.1,3.2,0,4.8
	c-0.1,1.4-1,2.4-2.5,2.5C171.1,163.1,169.7,163,168.2,163z"/>
<polygon points="87,151.5 87,153.8 82.7,153.8 82.7,175.1 80,175.1 80,153.8 75.7,153.8 75.7,151.5 "/>
<path d="M157.2,165.6c0,1.9,0.1,3.8-0.2,5.7c-0.4,2.8-2.3,4.2-5.3,4.1c-2.5-0.1-4.2-1.6-4.6-4.3c-0.2-1.2-0.2-2.4-0.2-3.5
	c0-3.3,0-6.6,0-9.9c0-0.7,0.1-1.4,0.2-2c0.5-3.4,3.1-5.1,6.5-4.2c2.1,0.5,3.3,2,3.6,4.6c0.1,0.9,0,1.9,0,3h-1.4
	c-0.1-1.1-0.1-2.1-0.2-3.2c-0.3-2.1-1.6-3.1-3.5-3.1c-1.9,0-3.1,1.2-3.4,3.3c-0.1,0.5-0.1,0.9-0.1,1.4c0,4,0,7.9,0,11.9
	c0,0.6,0,1.1,0.1,1.7c0.4,2,1.6,3,3.6,3c1.8,0,3.1-1,3.3-3c0.2-2.1,0-4.2,0-6.5h-3V163h4.6C157.2,163.9,157.2,164.7,157.2,165.6z"/>
<path d="M198.8,174.9c-1.7-7.6-3.4-15.2-5-22.8c-0.2-1-0.9-0.7-1.4-0.7c-0.5,0-1-0.1-1.2,0.7c-1,4.7-2.1,9.5-3.1,14.2
	c-0.6,2.9-1.3,5.8-1.9,8.7c1.4,0.3,1.4,0.3,1.7-1c0.3-1.2,0.5-2.4,0.8-3.5c0.1-0.3,0.5-0.6,0.7-0.6c2.1,0,4.1,0,6.2,0
	c0.3,0,0.6,0.3,0.7,0.6c0.3,1.1,0.5,2.3,0.8,3.5c0.3,1.3,0.3,1.3,1.8,1.1C198.8,175,198.9,174.9,198.8,174.9z M189,168.4
	c1.1-4.9,2.2-9.8,3.3-14.7c0.1,0,0.1,0,0.2,0c1.1,4.8,2.2,9.7,3.3,14.6H189z"/>
<path d="M257.4,170.9c-0.4,2.9-2.2,4.5-5,4.5c-2.9,0-4.8-1.6-5.1-4.5c-0.1-0.8-0.1-1.7-0.2-2.6h1.6c0,0.7,0,1.4,0,2.1
	c0.2,2.4,1.6,3.6,3.9,3.5c1.3-0.1,2.2-0.7,2.7-1.8c0.8-2,0.7-4-0.8-5.7c-0.7-0.8-1.7-1.5-2.5-2.2c-0.8-0.6-1.6-1.2-2.4-1.8
	c-2.4-2-3-4.6-2.2-7.5c0.7-2.5,2.5-3.7,5.3-3.5c2.5,0.1,4.1,1.7,4.4,4.4c0.1,0.6,0.1,1.3,0.1,2H256c-0.1-0.7-0.1-1.4-0.2-2
	c-0.4-2-1.6-2.9-3.5-2.9c-1.8,0.1-3,1.1-3.3,3.1c-0.3,2.1,0.2,3.9,1.9,5.3c1.2,1,2.5,2,3.8,2.9C256.9,165.8,257.8,168,257.4,170.9z"
	/>
<rect x="1.4" y="151.5" width="2.5" height="23.7"/>
<path d="M237.5,152.9h-3.6v22.3h-1.6v-22.3h-3.6c-1.3,0-1.3,0-1.1-1.4h11.2C238.7,152.9,238.7,152.9,237.5,152.9z"/>
</svg>
