<?xml version="1.0" encoding="utf-8"?>
<!-- Generator: Adobe Illustrator 27.8.1, SVG Export Plug-In . SVG Version: 6.00 Build 0)  -->
<svg version="1.1" baseProfile="basic" id="Layer_1"
	 xmlns="http://www.w3.org/2000/svg" xmlns:xlink="http://www.w3.org/1999/xlink" x="0px" y="0px" viewBox="0 0 255.9 61.7"
	 xml:space="preserve">
<style type="text/css">
	.st0{fill:#ED2024;}
</style>
<g>
	<path class="st0" d="M203.1,8.9c-0.3,1.1-0.6,2.1-0.9,3.2c-2.5,7.9-5,15.7-7.4,23.6c-1.9,6-3.8,12-5.7,18.1
		c-0.3,0.8-0.6,1.1-1.5,1.1c-2-0.1-4-0.1-5.9,0c-0.8,0-1.2-0.3-1.4-1.1c-1.9-5.7-3.8-11.3-5.7-17c-1.1-3.3-2.3-6.6-3.4-10
		c-0.1-0.2-0.2-0.4-0.4-0.7c-1.2,3.7-2.4,7.2-3.5,10.7c-1.9,5.6-3.8,11.2-5.6,16.8c-0.3,1-0.7,1.3-1.8,1.3c-1.9-0.1-3.8-0.1-5.7,0
		c-0.9,0-1.3-0.3-1.6-1.2c-2.7-8.8-5.5-17.7-8.3-26.5c-1.8-5.9-3.7-11.7-5.5-17.6c-0.1-0.2-0.1-0.4-0.2-0.7h1.2c2.8,0,5.6,0,8.5,0
		c0.8,0,1.1,0.2,1.4,1c1.3,4.5,2.7,9,4,13.6c1.3,4.4,2.6,8.8,4,13.6c0.4-1.1,0.6-1.8,0.9-2.6c1.7-5.2,3.5-10.5,5.2-15.7
		c1-2.9,1.9-5.9,2.8-8.9c0.2-0.7,0.6-1,1.4-1c2,0.1,4,0.1,5.9,0c0.9,0,1.4,0.2,1.7,1.2c2.6,8.5,5.4,16.9,8.1,25.4
		c0.1,0.4,0.3,0.8,0.5,1.5c0.6-2,1.2-3.7,1.7-5.3c1.3-4.4,2.6-8.8,3.9-13.2c0.9-2.9,1.7-5.7,2.6-8.5c0.1-0.4,0.6-0.9,0.9-0.9
		c3.2-0.1,6.4,0,9.6,0C202.8,8.8,202.9,8.9,203.1,8.9z"/>
	<path class="st0" d="M85.2,30.2c-2.6-7.7-5.2-15.4-7.8-23.1c-0.2-0.7-0.6-1.4-1.1-1.8c-2-1.6-4.1-3.1-6.2-4.5
		c-1.1-0.7-2.2-0.4-3.2,0.4c-1,0.9-2,1.8-3,2.8c-2.1,2-4.2,3.9-6.3,5.9c-1.1,1-2.2,2.1-3.3,3.2c0.2,0.2,0.3,0.3,0.3,0.4
		c3.4,2.5,6.9,4.9,10.3,7.4c1.7,1.2,2.2,2.9,1.6,4.9c-1.4,4.4-2.8,8.7-4.2,13.1c-0.7,2-2.2,3.1-4.3,3.1c-4.3,0-8.5-0.1-12.8,0
		c-3.3,0.1-4.4-1.4-5.2-3.7c-1.3-4-2.5-8.1-3.9-12.1c-0.8-2.1,0.1-4.2,1.7-5.4c3.5-2.5,7-5.1,10.6-7.7c-4.2-3.9-8.2-7.7-12.3-11.5
		c-1.4-1.3-2.7-1.5-4.3-0.3c-1.1,0.8-2.3,1.5-3.3,2.3c-1.4,1.1-2.9,2-3.6,3.9c-2.4,7.2-4.8,14.4-7.2,21.6c-0.5,1.5-0.5,2.9,0,4.4
		c1.2,3.4,2.2,6.8,3.4,10.2c0.4,1,1,2.1,1.8,2.8c2.2,1.9,4.6,3.6,7,5.4c3,2.3,5.9,4.6,8.9,6.8c1.4,1.1,2.7,2.4,4.7,2.4
		c5.3,0,10.5,0,15.8-0.1c0.9,0,2-0.3,2.7-0.9c5.3-3.9,10.4-8,15.7-12c1.9-1.5,3.6-3,4.3-5.5c1-3.5,2.2-7,3.3-10.5
		C85.4,31.7,85.4,30.9,85.2,30.2z M61.7,12.9c2.3-2.5,4.6-4.9,6.9-7.4c1.4,1,2.5,1.8,3.6,2.6c-1.1,3.4-2.2,6.7-3.3,10.1
		C66.6,16.4,64.1,14.6,61.7,12.9z M33.8,5.6c2.2,2.5,4.4,5,6.7,7.6c-2,1.4-4.4,3.2-6.9,5.1c-1.1-3.4-2.2-6.7-3.3-10.1
		C31.4,7.3,32.5,6.5,33.8,5.6z M26,42c-0.3,0-0.8-0.3-0.9-0.6C24,38.1,23,34.9,22,31.6c-0.1-0.2-0.1-0.4,0-0.5
		c1.8-5.3,3.6-10.6,5.5-15.8c0,0,0.1,0,0.3-0.1c2.9,8.9,5.8,17.8,8.7,26.8C32.9,42,29.4,42,26,42z M66.5,50.9
		c-2.1,1.7-4.3,3.4-6.5,5c-0.6,0.4-1.3,0.7-2,0.7c-4.5,0.1-9.1,0-13.6,0c-0.5,0-1-0.1-1.3-0.4c-3.9-3-7.9-6-11.8-9
		c-0.1-0.1-0.2-0.2-0.4-0.4h40.9C69.9,48.3,68.2,49.6,66.5,50.9z M80.4,32c-1,3.3-2.1,6.6-3.2,10h-11c2.9-9,5.8-17.9,8.7-26.8
		c0.1,0,0.2,0,0.3,0c0.1,0.4,0.3,0.7,0.4,1.1c1.6,4.7,3.2,9.5,4.7,14.2C80.5,30.9,80.6,31.5,80.4,32z"/>
	<path class="st0" d="M136.8,54.4c0,0.2-0.5,0.6-0.8,0.6c-5.4,0.2-10.1-1.2-14.1-5.1c-2.9-2.8-5.2-6-7.6-9.2
		c-1.2-1.6-2.4-3.2-3.7-4.8c-1.6,1.9-3,3.7-4.4,5.5c-0.2,0.3-0.3,0.8-0.3,1.2c0,3.6,0,7.2,0,10.9v1.3H95.8V8.9H106v18.8
		c0.1,0,0.2,0.1,0.3,0.1c0.8-1,1.7-2,2.5-3c2.5-3.1,5-6.3,7.5-9.4c1.6-2,3.2-4,4.9-6c0.2-0.2,0.5-0.5,0.8-0.5c3.6,0,7.2,0,11,0
		c-2.4,3-4.8,5.9-7.1,8.7c-2.2,2.6-4.3,5.3-6.5,7.9c-0.5,0.6-1,1.3-1.5,1.8c-0.5,0.5-0.5,0.9-0.1,1.6c2.6,3.5,5.2,7.1,7.8,10.5
		c2.1,2.8,4.6,5.2,8.3,5.7c1,0.2,1.9,0.3,3,0.4C136.9,48.4,136.9,51.4,136.8,54.4z"/>
	<polygon class="st0" points="219.5,17.9 219.5,27.4 237.5,27.4 237.5,35.9 219.5,35.9 219.5,54.7 209.3,54.7 209.3,8.9 241.6,8.9 
		241.6,17.9 	"/>
</g>
</svg>
