<?xml version="1.0" encoding="utf-8"?>
<svg version="1.1" baseProfile="tiny" id="Layer_1" xmlns="http://www.w3.org/2000/svg"
    height="34" viewBox="0 0 525.4 79.6" overflow="visible" xml:space="preserve">
<path d="M36.2,71.6c-11.4,0-20.6-9.2-20.6-20.6c0-4.5,1.4-9,4.3-12.6l2.6,1.9c-2.3,3-3.5,6.7-3.5,10.5c0,9.6,7.8,17.4,17.4,17.4
	c9.2,0,16.7-7.5,17.4-17.5c0.4-6-2.7-10.9-6.1-16.1c-5-7.7-10.7-16.4-1.2-28.4l2.6,2.1c-8,10-3.6,16.7,1.4,24.5
	c3.5,5.4,7.1,11,6.6,18.2C56.2,62.8,47.3,71.6,36.2,71.6z M36.2,72.6c-11.9,0-21.6-9.7-21.6-21.6c0-4.9,1.6-9.6,4.5-13.2l0.6-0.7
	l4.2,3.1l-0.6,0.8c-2.1,2.8-3.3,6.3-3.3,9.9c0,9,7.4,16.4,16.4,16.4c8.7,0,15.7-7.1,16.4-16.6c0.4-5.8-2.8-10.7-5.9-15.5
	c-5-7.6-11.1-17-1.1-29.6l0.6-0.8l4.2,3.4l-0.6,0.8c-7.5,9.4-3.6,15.5,1.4,23.2l0.1,0.2c3.4,5.3,7.3,11.2,6.8,18.8
	C57.2,63.3,47.7,72.6,36.2,72.6z M20.1,39.8c-2.3,3.2-3.5,7.1-3.5,11.2c0,10.8,8.8,19.6,19.6,19.6c10.5,0,19-8.5,19.9-19.7
	c0.5-6.9-3-12.3-6.4-17.6l-0.1-0.2c-4.8-7.5-9.4-14.6-1.8-24.7l-1-0.8c-8.2,11-3.1,18.8,1.8,26.4c3.3,5.1,6.7,10.3,6.3,16.8
	c-0.7,10.5-8.6,18.4-18.4,18.4C26.3,69.2,18,60.9,18,50.8c0-3.7,1.1-7.3,3.1-10.3L20.1,39.8z M45.2,50.7c1.9,0,3.4,1.8,2.7,3.6
	c-1.6,4.8-6.1,8.4-11.4,8.4s-10-3.5-11.5-8.4c-0.5-1.8,0.9-3.6,2.7-3.6h3.1h5.4h5.1C41.3,50.7,45.2,50.7,45.2,50.7z M36.9,22.2
	c0.1,1.3-0.3,2.5-1.2,3.4c-0.9,0.9-1.9,1.6-3.2,1.6c-0.3,0-0.5,0-0.8,0l0,0c-0.9-0.1-1.8-0.5-2.6-1c-0.9-0.8-1.6-1.9-1.6-3.2
	c-0.1-1.3,0.3-2.5,1-3.4c0.8-0.9,1.9-1.6,3.2-1.6c0.1,0,0.3,0,0.4,0c1.2,0,2.3,0.5,3.2,1.3C36.2,19.8,36.8,20.9,36.9,22.2z
	 M23.7,25.3c0.6,0.9,1,1.9,1,3c0,0.1,0,0.3,0,0.4c-0.3,2.6-2.5,4.5-5.1,4.3c-2.6-0.2-4.5-2.5-4.3-5.1c0.1-1.3,0.6-2.3,1.7-3.2
	c0.9-0.8,1.9-1,3-1c0.1,0,0.3,0,0.4,0C21.7,23.7,22.9,24.4,23.7,25.3z M35.9,35.4c0.1,1.3-0.3,2.5-1,3.4c-0.8,0.9-1.9,1.6-3.2,1.6
	c-1.3,0.1-2.5-0.3-3.4-1.2c-0.9-0.8-1.6-1.9-1.6-3.2c-0.1-1.3,0.3-2.5,1.2-3.4c0.8-0.9,1.9-1.6,3.2-1.7c0.1,0,0.3,0,0.4,0
	s0.3,0,0.4,0c1,0.1,1.9,0.5,2.6,1.2C35.2,33.1,35.9,34.1,35.9,35.4z M396.3,8.7h11.6v47.1H431v7.9h-34.7V8.7z M165.3,42.6
	c0-6.9-1.5-12.2-4.5-16S152.5,21,145,21c-7.2,0-12.4,1.9-15.6,5.6c-3.2,3.7-4.8,9.1-4.8,16.1c0,6.7,1.6,12.1,4.7,16
	c3.1,3.9,8.4,5.8,15.8,5.8c4,0,7.2-0.4,9.7-1.3c2.4-0.9,4.5-2.2,6.1-4.1c1.7-1.9,2.7-4.2,3.2-7l-9.1-2.5c-0.5,1.8-1.1,3.3-1.8,4.7
	c-0.8,1.4-1.8,2.3-3.2,2.9c-1.3,0.6-3,0.8-4.9,0.8c-3.3,0-5.9-1.1-7.8-3.3c-1.6-1.8-2.5-4.7-2.8-8.8H165
	C165.2,44.7,165.3,43.7,165.3,42.6z M134.6,39.5c0.3-4.2,1.3-7.2,2.9-8.9c1.9-2.1,4.5-3.2,7.6-3.2c3.2,0,5.7,1,7.5,3
	c1.4,1.7,2.2,4.8,2.5,9.1H134.6z M228.6,26.2c-1.8-3.5-5.3-5.2-10.5-5.2c-4.6,0-8.6,1.7-11.9,5.2c-0.5,0.6-1,1.1-1.5,1.7
	c-0.2-0.6-0.5-1.2-0.8-1.7c-1.8-3.4-5.3-5.2-10.6-5.2c-4.4,0-8.2,1.5-11.3,4.6l0.1-4.2h-10.2v42.7H182V37.8c0.2-2.9,0.9-5.2,2.2-6.8
	c1.5-2,3.5-3,5.8-3s4,0.9,5,2.7c1,1.8,1.5,4.7,1.5,8.7V64h10.1V38.4c0,0,0,0,0-0.1c0.2-3.1,0.9-5.6,2.2-7.3c1.5-2,3.4-3,5.8-3
	s4,0.9,5,2.7c1,1.8,1.5,4.7,1.5,8.7V64h10.1V38.6C231.2,33.7,230.4,29.6,228.6,26.2z M274.9,27.7c-1.5-2.4-3.7-4.1-6.6-5.2
	c-2.9-1.1-6.5-1.6-10.7-1.6c-2.4,0-4.7,0.2-6.8,0.7s-4.1,1.1-5.8,2.1c-1.7,0.9-3.2,2.2-4.4,3.8c-1.2,1.6-2,3.5-2.5,5.8L248,36
	c0.4-2,1-3.6,1.9-4.8s2-2,3.3-2.6c1.3-0.5,2.8-0.8,4.4-0.8c1.9,0,3.6,0.3,5,0.9s2.5,1.5,3.2,2.8c0.8,1.3,1.1,3,1.1,5.2v1.9h-13.7
	c-2.5,0-4.7,0.2-6.6,0.6c-1.9,0.4-3.6,1.1-4.9,2.1c-1.3,1-2.3,2.3-3,3.9c-0.7,1.6-1,3.7-1,6.1c0,2.5,0.4,4.7,1.1,6.3
	c0.7,1.7,1.8,3,3.2,4s3,1.7,5,2.1c1.9,0.4,4.1,0.6,6.5,0.6c2,0,3.7-0.2,5.3-0.5s3-0.8,4.3-1.3c1.2-0.6,2.3-1.1,3.1-1.8
	c0.8-0.6,1.4-1.3,1.8-1.9v5.1h9.3V37.2C277.1,33.2,276.4,30.1,274.9,27.7z M266.9,53.2L266.9,53.2c-0.6,0.8-1.3,1.5-2.3,2.3
	c-1,0.7-2.3,1.3-3.8,1.8c-1.5,0.4-3.2,0.7-5.1,0.6c-1.1,0-2.1-0.1-3.1-0.3s-1.8-0.5-2.5-1s-1.2-1.2-1.6-2.1c-0.4-0.9-0.6-2-0.6-3.5
	c0-1.4,0.2-2.6,0.6-3.5c0.4-0.9,0.9-1.6,1.6-2.1s1.5-0.8,2.5-1s2-0.3,3.1-0.3h11.2L266.9,53.2L266.9,53.2z M320.4,33.3
	c0-0.2-0.1-0.4-0.1-0.6c-0.5-2.7-1.2-4.9-2.2-6.7c-2-3.4-5.6-5-10.9-5c-5,0-9,1.3-12.1,4c-0.5,0.5-1,0.9-1.4,1.4v-5h-9.3v42.7h10.1
	V36.6c0.1-2.1,0.9-4,2.4-5.8c1.6-1.9,3.8-2.8,6.5-2.8c0.9,0,1.7,0.1,2.4,0.4c1.3,0.4,2.4,1.2,3.2,2.4c0.8,1.1,1.3,2.8,1.6,5.2l0,0
	L320.4,33.3z M327.4,9v7.6h10.2V9H327.4z M327.4,21.3V64h10.2V21.3H327.4z M382.3,27.7c-1.5-2.4-3.7-4.1-6.6-5.2
	c-2.9-1.1-6.5-1.6-10.7-1.6c-2.4,0-4.7,0.2-6.8,0.7c-2.1,0.5-4.1,1.1-5.8,2.1c-1.7,0.9-3.2,2.2-4.4,3.8c-1.2,1.6-2,3.5-2.5,5.8
	l9.9,2.7c0.4-2,1-3.6,1.9-4.8s2-2,3.3-2.6c1.3-0.5,2.8-0.8,4.4-0.8c1.9,0,3.6,0.3,5,0.9s2.5,1.5,3.2,2.8c0.8,1.3,1.1,3,1.1,5.2v1.9
	h-13.7c-2.5,0-4.7,0.2-6.6,0.6c-1.9,0.4-3.6,1.1-4.9,2.1s-2.3,2.3-3,3.9c-0.7,1.6-1,3.7-1,6.1c0,2.5,0.4,4.7,1.1,6.3
	c0.7,1.7,1.8,3,3.2,4c1.4,1,3,1.7,4.9,2.1s4.1,0.6,6.5,0.6c2,0,3.7-0.2,5.3-0.5c1.6-0.3,3-0.8,4.3-1.3c1.2-0.6,2.3-1.1,3.1-1.8
	c0.8-0.6,1.4-1.3,1.8-1.9v5.1h9.3V37.2C384.5,33.2,383.8,30.1,382.3,27.7z M374.3,53.2h-0.1c-0.5,0.8-1.2,1.5-2.2,2.3
	c-1,0.7-2.3,1.3-3.8,1.8s-3.2,0.7-5.1,0.6c-1.1,0-2.1-0.1-3.1-0.3s-1.8-0.5-2.5-1s-1.2-1.2-1.6-2.1c-0.4-0.9-0.6-2-0.6-3.5
	c0-1.4,0.2-2.6,0.6-3.5s0.9-1.6,1.6-2.1s1.5-0.8,2.5-1c0.9-0.2,2-0.3,3.1-0.3h11.2V53.2z M473.8,27.7c-1.5-2.4-3.7-4.1-6.6-5.2
	c-2.9-1.1-6.5-1.6-10.7-1.6c-2.4,0-4.7,0.2-6.8,0.7c-2.1,0.5-4.1,1.1-5.8,2.1c-1.7,0.9-3.2,2.2-4.4,3.8c-1.2,1.6-2,3.5-2.5,5.8
	l9.9,2.7c0.4-2,1-3.6,1.9-4.8s2-2,3.3-2.6c1.3-0.5,2.8-0.8,4.4-0.8c1.9,0,3.6,0.3,5,0.9s2.5,1.5,3.2,2.8c0.8,1.3,1.1,3,1.1,5.2v1.9
	h-13.7c-2.5,0-4.7,0.2-6.6,0.6c-1.9,0.4-3.6,1.1-4.9,2.1s-2.3,2.3-3,3.9c-0.7,1.6-1,3.7-1,6.1c0,2.5,0.4,4.7,1.1,6.3
	c0.7,1.7,1.8,3,3.1,4c1.4,1,3,1.7,5,2.1c1.9,0.4,4.1,0.6,6.5,0.6c2,0,3.7-0.2,5.3-0.5c1.6-0.3,3-0.8,4.3-1.3
	c1.2-0.6,2.3-1.1,3.1-1.8c0.8-0.6,1.4-1.3,1.8-1.9v5.1h9.3V37.2C476.1,33.2,475.3,30.1,473.8,27.7z M465.9,53.2L465.9,53.2
	c-0.6,0.8-1.3,1.5-2.3,2.3c-1,0.7-2.3,1.3-3.8,1.8s-3.2,0.7-5.1,0.6c-1.1,0-2.1-0.1-3.1-0.3s-1.8-0.5-2.5-1s-1.2-1.2-1.6-2.1
	c-0.4-0.9-0.6-2-0.6-3.5c0-1.4,0.2-2.6,0.6-3.5s0.9-1.6,1.6-2.1s1.5-0.8,2.5-1s2-0.3,3.1-0.3h11.2L465.9,53.2L465.9,53.2z
	 M519.2,26.6c-2.6-3.7-6.6-5.6-12.1-5.6c-4.9,0-9.1,1.2-12.7,3.5l-0.9,0.6V9h-10.1v55h9.8v-5.1c0.4,0.3,5.9,5.4,13.9,5.4
	c5.5,0,9.6-1.9,12.1-5.6c2.6-3.8,3.8-9.1,3.8-16C523,35.7,521.7,30.3,519.2,26.6z M510.4,54.3c-1.6,2-3.9,3-6.8,3
	c-2.7,0-5.1-0.9-7.1-2.6c-1.8-1.6-2.8-3.4-3-5.5V36c0.2-2.1,1.2-3.9,3-5.5c2-1.8,4.4-2.6,7.1-2.6c2.9,0,5.2,1,6.8,3.1
	c1.6,2,2.4,5.9,2.4,11.6C512.8,48.4,512,52.3,510.4,54.3z M115.1,19.4c-2.7-3.7-7.5-5.6-14.3-5.6h-24v50.6h24.1
	c6.8,0,11.5-1.9,14.3-5.6c2.8-3.7,4.2-10.3,4.2-19.8C119.3,29.6,117.9,23.1,115.1,19.4z M106,54c-1.8,2.1-4.4,3.1-8.1,3.1H87.4v-36
	h10.5c3.6,0,6.3,1,8.1,3.1c1.8,2.1,2.6,7,2.6,14.9S107.8,52,106,54z M76.8,64.1h10.6"/>
</svg>
