<?xml version="1.0" encoding="utf-8"?>
<svg version="1.1" id="Layer_1" xmlns="http://www.w3.org/2000/svg" xmlns:xlink="http://www.w3.org/1999/xlink" x="0px" y="0px"
	 viewBox="0 0 525.4 79.6" style="enable-background:new 0 0 525.4 79.6;" xml:space="preserve">
<style type="text/css">
	.st0{stroke:#000000;stroke-width:2;stroke-miterlimit:10;}
	.st1{fill:none;}
</style>
<path d="M396.3,8.7h11.6v47.1h23.1v7.9h-34.7V8.7z"/>
<path d="M165.3,42.3c0-6.9-1.5-12.2-4.5-16s-8.3-5.6-15.8-5.6c-7.2,0-12.4,1.9-15.6,5.6c-3.2,3.7-4.8,9.1-4.8,16.1
	c0,6.7,1.6,12.1,4.7,16c3.1,3.9,8.4,5.8,15.8,5.8c4,0,7.2-0.4,9.7-1.3c2.4-0.9,4.5-2.2,6.1-4.1c1.7-1.9,2.7-4.2,3.2-7l-9.1-2.5
	c-0.5,1.8-1.1,3.3-1.8,4.7c-0.8,1.4-1.8,2.3-3.2,2.9c-1.3,0.6-3,0.8-4.9,0.8c-3.3,0-5.9-1.1-7.8-3.3c-1.6-1.8-2.5-4.7-2.8-8.8H165
	C165.2,44.4,165.3,43.4,165.3,42.3z M134.6,39.2c0.3-4.2,1.3-7.2,2.9-8.9c1.9-2.1,4.5-3.2,7.6-3.2c3.2,0,5.7,1,7.5,3
	c1.4,1.7,2.2,4.8,2.5,9.1H134.6z M228.6,25.9c-1.8-3.5-5.3-5.2-10.5-5.2c-4.6,0-8.6,1.7-11.9,5.2c-0.5,0.6-1,1.1-1.5,1.7
	c-0.2-0.6-0.5-1.2-0.8-1.7c-1.8-3.4-5.3-5.2-10.6-5.2c-4.4,0-8.2,1.5-11.3,4.6l0.1-4.2h-10.2v42.7H182V37.5c0.2-2.9,0.9-5.2,2.2-6.8
	c1.5-2,3.5-3,5.8-3s4,0.9,5,2.7c1,1.8,1.5,4.7,1.5,8.7v24.6h10.1V38.1c0,0,0,0,0-0.1c0.2-3.1,0.9-5.6,2.2-7.3c1.5-2,3.4-3,5.8-3
	s4,0.9,5,2.7c1,1.8,1.5,4.7,1.5,8.7v24.6h10.1V38.3C231.2,33.4,230.4,29.3,228.6,25.9z M274.9,27.4c-1.5-2.4-3.7-4.1-6.6-5.2
	c-2.9-1.1-6.5-1.6-10.7-1.6c-2.4,0-4.7,0.2-6.8,0.7s-4.1,1.1-5.8,2.1c-1.7,0.9-3.2,2.2-4.4,3.8c-1.2,1.6-2,3.5-2.5,5.8l9.9,2.7
	c0.4-2,1-3.6,1.9-4.8s2-2,3.3-2.6c1.3-0.5,2.8-0.8,4.4-0.8c1.9,0,3.6,0.3,5,0.9s2.5,1.5,3.2,2.8c0.8,1.3,1.1,3,1.1,5.2v1.9h-13.7
	c-2.5,0-4.7,0.2-6.6,0.6c-1.9,0.4-3.6,1.1-4.9,2.1c-1.3,1-2.3,2.3-3,3.9c-0.7,1.6-1,3.7-1,6.1c0,2.5,0.4,4.7,1.1,6.3
	c0.7,1.7,1.8,3,3.2,4s3,1.7,5,2.1c1.9,0.4,4.1,0.6,6.5,0.6c2,0,3.7-0.2,5.3-0.5s3-0.8,4.3-1.3c1.2-0.6,2.3-1.1,3.1-1.8
	c0.8-0.6,1.4-1.3,1.8-1.9v5.1h9.3V36.9C277.1,32.9,276.4,29.8,274.9,27.4z M266.9,52.9L266.9,52.9c-0.6,0.8-1.3,1.5-2.3,2.3
	c-1,0.7-2.3,1.3-3.8,1.8c-1.5,0.4-3.2,0.7-5.1,0.6c-1.1,0-2.1-0.1-3.1-0.3s-1.8-0.5-2.5-1s-1.2-1.2-1.6-2.1c-0.4-0.9-0.6-2-0.6-3.5
	c0-1.4,0.2-2.6,0.6-3.5c0.4-0.9,0.9-1.6,1.6-2.1s1.5-0.8,2.5-1s2-0.3,3.1-0.3h11.2L266.9,52.9L266.9,52.9z M320.4,33
	c0-0.2-0.1-0.4-0.1-0.6c-0.5-2.7-1.2-4.9-2.2-6.7c-2-3.4-5.6-5-10.9-5c-5,0-9,1.3-12.1,4c-0.5,0.5-1,0.9-1.4,1.4v-5h-9.3v42.7h10.1
	V36.3c0.1-2.1,0.9-4,2.4-5.8c1.6-1.9,3.8-2.8,6.5-2.8c0.9,0,1.7,0.1,2.4,0.4c1.3,0.4,2.4,1.2,3.2,2.4c0.8,1.1,1.3,2.8,1.6,5.2l0,0
	L320.4,33z M327.4,8.7v7.6h10.2V8.7H327.4z M327.4,21v42.7h10.2V21H327.4z M382.3,27.4c-1.5-2.4-3.7-4.1-6.6-5.2
	c-2.9-1.1-6.5-1.6-10.7-1.6c-2.4,0-4.7,0.2-6.8,0.7c-2.1,0.5-4.1,1.1-5.8,2.1c-1.7,0.9-3.2,2.2-4.4,3.8c-1.2,1.6-2,3.5-2.5,5.8
	l9.9,2.7c0.4-2,1-3.6,1.9-4.8s2-2,3.3-2.6c1.3-0.5,2.8-0.8,4.4-0.8c1.9,0,3.6,0.3,5,0.9s2.5,1.5,3.2,2.8c0.8,1.3,1.1,3,1.1,5.2v1.9
	h-13.7c-2.5,0-4.7,0.2-6.6,0.6c-1.9,0.4-3.6,1.1-4.9,2.1s-2.3,2.3-3,3.9c-0.7,1.6-1,3.7-1,6.1c0,2.5,0.4,4.7,1.1,6.3
	c0.7,1.7,1.8,3,3.2,4c1.4,1,3,1.7,4.9,2.1c1.9,0.4,4.1,0.6,6.5,0.6c2,0,3.7-0.2,5.3-0.5c1.6-0.3,3-0.8,4.3-1.3
	c1.2-0.6,2.3-1.1,3.1-1.8c0.8-0.6,1.4-1.3,1.8-1.9v5.1h9.3V36.9C384.5,32.9,383.8,29.8,382.3,27.4z M374.3,52.9h-0.1
	c-0.5,0.8-1.2,1.5-2.2,2.3c-1,0.7-2.3,1.3-3.8,1.8s-3.2,0.7-5.1,0.6c-1.1,0-2.1-0.1-3.1-0.3s-1.8-0.5-2.5-1s-1.2-1.2-1.6-2.1
	c-0.4-0.9-0.6-2-0.6-3.5c0-1.4,0.2-2.6,0.6-3.5s0.9-1.6,1.6-2.1s1.5-0.8,2.5-1c0.9-0.2,2-0.3,3.1-0.3h11.2V52.9z M473.8,27.4
	c-1.5-2.4-3.7-4.1-6.6-5.2c-2.9-1.1-6.5-1.6-10.7-1.6c-2.4,0-4.7,0.2-6.8,0.7c-2.1,0.5-4.1,1.1-5.8,2.1c-1.7,0.9-3.2,2.2-4.4,3.8
	c-1.2,1.6-2,3.5-2.5,5.8l9.9,2.7c0.4-2,1-3.6,1.9-4.8s2-2,3.3-2.6c1.3-0.5,2.8-0.8,4.4-0.8c1.9,0,3.6,0.3,5,0.9s2.5,1.5,3.2,2.8
	c0.8,1.3,1.1,3,1.1,5.2v1.9h-13.7c-2.5,0-4.7,0.2-6.6,0.6c-1.9,0.4-3.6,1.1-4.9,2.1s-2.3,2.3-3,3.9c-0.7,1.6-1,3.7-1,6.1
	c0,2.5,0.4,4.7,1.1,6.3c0.7,1.7,1.8,3,3.1,4c1.4,1,3,1.7,5,2.1c1.9,0.4,4.1,0.6,6.5,0.6c2,0,3.7-0.2,5.3-0.5c1.6-0.3,3-0.8,4.3-1.3
	c1.2-0.6,2.3-1.1,3.1-1.8c0.8-0.6,1.4-1.3,1.8-1.9v5.1h9.3V36.9C476.1,32.9,475.3,29.8,473.8,27.4z M465.9,52.9L465.9,52.9
	c-0.6,0.8-1.3,1.5-2.3,2.3c-1,0.7-2.3,1.3-3.8,1.8s-3.2,0.7-5.1,0.6c-1.1,0-2.1-0.1-3.1-0.3s-1.8-0.5-2.5-1s-1.2-1.2-1.6-2.1
	c-0.4-0.9-0.6-2-0.6-3.5c0-1.4,0.2-2.6,0.6-3.5s0.9-1.6,1.6-2.1s1.5-0.8,2.5-1s2-0.3,3.1-0.3h11.2L465.9,52.9L465.9,52.9z
	 M519.2,26.3c-2.6-3.7-6.6-5.6-12.1-5.6c-4.9,0-9.1,1.2-12.7,3.5l-0.9,0.6V8.7h-10.1v55h9.8v-5.1c0.4,0.3,5.9,5.4,13.9,5.4
	c5.5,0,9.6-1.9,12.1-5.6c2.6-3.8,3.8-9.1,3.8-16C523,35.4,521.7,30,519.2,26.3z M510.4,54c-1.6,2-3.9,3-6.8,3
	c-2.7,0-5.1-0.9-7.1-2.6c-1.8-1.6-2.8-3.4-3-5.5V35.7c0.2-2.1,1.2-3.9,3-5.5c2-1.8,4.4-2.6,7.1-2.6c2.9,0,5.2,1,6.8,3.1
	c1.6,2,2.4,5.9,2.4,11.6C512.8,48.1,512,52,510.4,54z M115.1,19.1c-2.7-3.7-7.5-5.6-14.3-5.6h-24v50.6h24.1c6.8,0,11.5-1.9,14.3-5.6
	c2.8-3.7,4.2-10.3,4.2-19.8C119.3,29.3,117.9,22.8,115.1,19.1z M106,53.7c-1.8,2.1-4.4,3.1-8.1,3.1H87.4v-36h10.5
	c3.6,0,6.3,1,8.1,3.1c1.8,2.1,2.6,7,2.6,14.9S107.8,51.7,106,53.7z"/>
<g>
	<path class="st0" d="M32.2,67.6c-11.4,0-20.6-9.2-20.6-20.6c0-4.5,1.4-9,4.3-12.6l2.6,1.9c-2.3,3-3.5,6.7-3.5,10.5
		c0,9.6,7.8,17.4,17.4,17.4c9.2,0,16.7-7.5,17.4-17.5c0.4-6-2.7-10.9-6.1-16.1C38.7,22.9,33,14.2,42.5,2.2l2.6,2.1
		c-8,10-3.6,16.7,1.4,24.5c3.5,5.4,7.1,11,6.6,18.2C52.2,58.8,43.3,67.6,32.2,67.6z"/>
</g>
<g>
	<path d="M41.2,46.7c1.9,0,3.4,1.8,2.7,3.6c-1.6,4.8-6.1,8.4-11.4,8.4s-10-3.5-11.5-8.4c-0.5-1.8,0.9-3.6,2.7-3.6h3.1h5.4h5.1H41.2z
		"/>
</g>
<g>
	<g>
		<g>
			<path d="M32.9,18.2c0.1,1.3-0.3,2.5-1.2,3.4c-0.9,0.9-1.9,1.6-3.2,1.6c-0.3,0-0.5,0-0.8,0l0,0c-0.9-0.1-1.8-0.5-2.6-1
				c-0.9-0.8-1.6-1.9-1.6-3.2c-0.1-1.3,0.3-2.5,1-3.4c0.8-0.9,1.9-1.6,3.2-1.6c0.1,0,0.3,0,0.4,0c1.2,0,2.3,0.5,3.2,1.3
				C32.2,15.8,32.8,16.9,32.9,18.2z"/>
		</g>
	</g>
	<g>
		<g>
			<path d="M19.7,21.3c0.6,0.9,1,1.9,1,3c0,0.1,0,0.3,0,0.4c-0.3,2.6-2.5,4.5-5.1,4.3s-4.5-2.5-4.3-5.1c0.1-1.3,0.6-2.3,1.7-3.2
				c0.9-0.8,1.9-1,3-1c0.1,0,0.3,0,0.4,0C17.7,19.7,18.9,20.4,19.7,21.3z"/>
		</g>
	</g>
	<g>
		<g>
			<path d="M31.9,31.4c0.1,1.3-0.3,2.5-1,3.4c-0.8,0.9-1.9,1.6-3.2,1.6c-1.3,0.1-2.5-0.3-3.4-1.2c-0.9-0.8-1.6-1.9-1.6-3.2
				c-0.1-1.3,0.3-2.5,1.2-3.4c0.8-0.9,1.9-1.6,3.2-1.7c0.1,0,0.3,0,0.4,0c0.1,0,0.3,0,0.4,0c1,0.1,1.9,0.5,2.6,1.2
				C31.2,29.1,31.9,30.1,31.9,31.4z"/>
		</g>
	</g>
</g>
<line class="st1" x1="17.1" y1="35.3" x2="42" y2="2.7"/>
<rect x="14.9" y="19.1" class="st1" width="14.7" height="14.9"/>
<line class="st1" x1="14.9" y1="19.1" x2="30.4" y2="34.7"/>
<line class="st1" x1="29.5" y1="26.5" x2="2.7" y2="26.5"/>
<line class="st1" x1="77.5" y1="13.3" x2="10" y2="13.3"/>
<line class="st1" x1="77.5" y1="64.2" x2="10" y2="64.2"/>
<line class="st1" x1="76.8" y1="64.1" x2="87.4" y2="64.1"/>
</svg>
